<?xml version="1.0" encoding="UTF-8" standalone="no"?>
<!-- Creator: CorelDRAW 2021.5 -->

<svg
   xml:space="preserve"
   width="350mm"
   height="250mm"
   version="1.1"
   style="clip-rule:evenodd;fill-rule:evenodd;image-rendering:optimizeQuality;shape-rendering:geometricPrecision;text-rendering:geometricPrecision"
   viewBox="0 0 35000 25000"
   id="svg46"
   sodipodi:docname="lower_main_plexi.svg"
   inkscape:version="1.2 (dc2aedaf03, 2022-05-15)"
   inkscape:export-filename="upper.svg"
   inkscape:export-xdpi="96"
   inkscape:export-ydpi="96"
   xmlns:inkscape="http://www.inkscape.org/namespaces/inkscape"
   xmlns:sodipodi="http://sodipodi.sourceforge.net/DTD/sodipodi-0.dtd"
   xmlns="http://www.w3.org/2000/svg"
   xmlns:svg="http://www.w3.org/2000/svg"><sodipodi:namedview
   id="namedview48"
   pagecolor="#ffffff"
   bordercolor="#000000"
   borderopacity="1"
   inkscape:showpageshadow="false"
   inkscape:pageopacity="1"
   inkscape:pagecheckerboard="1"
   inkscape:deskcolor="#454545"
   inkscape:document-units="mm"
   showgrid="false"
   inkscape:zoom="0.75459098"
   inkscape:cx="670.56195"
   inkscape:cy="495.63275"
   inkscape:window-width="1920"
   inkscape:window-height="1017"
   inkscape:window-x="-8"
   inkscape:window-y="-8"
   inkscape:window-maximized="1"
   inkscape:current-layer="Layer_x0020_1" />
 <defs
   id="defs4">
  <style
   type="text/css"
   id="style2">
   <![CDATA[
    .str0 {stroke:red;stroke-width:7.62;stroke-miterlimit:22.9256}
    .fil0 {fill:none}
   ]]>
  </style>
 </defs>
 <g
   id="Layer_x0020_1"
   inkscape:label="Layer 1"
   inkscape:groupmode="layer">
  <metadata
   id="CorelCorpID_0Corel-Layer" />
  <rect
   class="fil0 str0"
   x="1445.973"
   y="886.33575"
   width="31998.754"
   height="20998.756"
   id="rect7"
   rx="250"
   ry="250" />
  <circle
   class="fil0 str0"
   cx="3145.71"
   cy="2586.1101"
   r="200"
   id="circle9" />
  <circle
   class="fil0 str0"
   cx="31745.01"
   cy="2586.1101"
   r="200"
   id="circle11" />
  <circle
   class="fil0 str0"
   cx="3145.71"
   cy="20185.311"
   r="200"
   id="circle13" />
  <circle
   class="fil0 str0"
   cx="31745.01"
   cy="20185.311"
   r="200"
   id="circle15" />
  
  
  
  
  
  
  
  
  
  
  
  
  
  
 <circle
   class="fil0 str0"
   cx="17445.35"
   cy="2586.1101"
   r="200"
   id="circle9-7"
   style="clip-rule:evenodd;fill:none;fill-rule:evenodd;stroke:#ff0000;stroke-width:7.62;stroke-miterlimit:22.9256;image-rendering:optimizeQuality;shape-rendering:geometricPrecision;text-rendering:geometricPrecision" /><circle
   class="fil0 str0"
   cx="17445.35"
   cy="20185.311"
   r="200"
   id="circle9-7-9"
   style="clip-rule:evenodd;fill:none;fill-rule:evenodd;stroke:#ff0000;stroke-width:7.62;stroke-miterlimit:22.9256;image-rendering:optimizeQuality;shape-rendering:geometricPrecision;text-rendering:geometricPrecision" /><circle
   class="fil0 str0"
   cx="5145.7002"
   cy="2586.1101"
   id="circle9-9"
   style="clip-rule:evenodd;fill:none;fill-rule:evenodd;stroke:#ff0000;stroke-width:7.62;stroke-miterlimit:22.9256;image-rendering:optimizeQuality;shape-rendering:geometricPrecision;text-rendering:geometricPrecision"
   r="146.19" /><circle
   class="fil0 str0"
   cx="5145.7002"
   cy="20185.311"
   id="circle9-9-2"
   style="clip-rule:evenodd;fill:none;fill-rule:evenodd;stroke:#ff0000;stroke-width:7.62;stroke-miterlimit:22.9256;image-rendering:optimizeQuality;shape-rendering:geometricPrecision;text-rendering:geometricPrecision"
   r="146.19" /><circle
   class="fil0 str0"
   cx="29745"
   cy="20185.311"
   id="circle9-9-5"
   style="clip-rule:evenodd;fill:none;fill-rule:evenodd;stroke:#ff0000;stroke-width:7.62;stroke-miterlimit:22.9256;image-rendering:optimizeQuality;shape-rendering:geometricPrecision;text-rendering:geometricPrecision"
   r="146.19" /><circle
   class="fil0 str0"
   cx="29745"
   cy="2586.1101"
   id="circle9-9-7"
   style="clip-rule:evenodd;fill:none;fill-rule:evenodd;stroke:#ff0000;stroke-width:7.62;stroke-miterlimit:22.9256;image-rendering:optimizeQuality;shape-rendering:geometricPrecision;text-rendering:geometricPrecision"
   r="146.19" /><path
   id="path22842-57-3"
   style="clip-rule:evenodd;fill:none;fill-rule:evenodd;stroke:#ff1f1f;stroke-width:10;image-rendering:optimizeQuality;shape-rendering:geometricPrecision;text-rendering:geometricPrecision"
   d="m 28030.008,16600.001 a 100,100 0 0 1 -100,100 100,100 0 0 1 -100,-100 100,100 0 0 1 100,-100 100,100 0 0 1 100,100 z m 0,-1139.993 a 100,100 0 0 1 -100,100 100,100 0 0 1 -100,-100 100,100 0 0 1 100,-100 100,100 0 0 1 100,100 z m -4699.992,1139.993 a 100,100 0 0 1 -100,100 100,100 0 0 1 -100,-100 100,100 0 0 1 100,-100 100,100 0 0 1 100,100 z m 0,-1139.993 a 100,100 0 0 1 -100,100 100,100 0 0 1 -100,-100 100,100 0 0 1 100,-100 100,100 0 0 1 100,100 z" /><path
   id="path458-7-6"
   style="clip-rule:evenodd;fill:none;fill-rule:evenodd;stroke:#ff0000;stroke-width:10;image-rendering:optimizeQuality;shape-rendering:geometricPrecision;text-rendering:geometricPrecision"
   d="m 30155,17880.01 a 174.99954,175 0 0 1 -175,175 174.99954,175 0 0 1 -174.999,-175 174.99954,175 0 0 1 174.999,-175.001 174.99954,175 0 0 1 175,175.001 z m -8800.001,0 a 174.99954,175 0 0 1 -174.999,175 174.99954,175 0 0 1 -175,-175 174.99954,175 0 0 1 175,-175.001 174.99954,175 0 0 1 174.999,175.001 z m 8800.025,-3700.009 a 175,175 0 0 1 -175,175.001 175,175 0 0 1 -175,-175.001 175,175 0 0 1 175,-175.001 175,175 0 0 1 175,175.001 z m -8800.024,0 a 175,175 0 0 1 -175,175.001 175,175 0 0 1 -175,-175.001 175,175 0 0 1 175,-175.001 175,175 0 0 1 175,175.001 z" /><g
   transform="matrix(1.2670748,0,0,-1.2670748,13795.144,15106.504)"
   fill="#000000"
   stroke="none"
   id="g8205"><path
     d="m 4985,4294 -305,-62 v -626 c 0,-508 5,-626 27,-626 14,0 77,10 140,23 l 113,23 v 223 223 l 155,26 c 451,75 689,415 503,720 -91,150 -202,163 -633,76 z m 342,-235 c 121,-95 31,-255 -168,-297 -59,-13 -129,-29 -154,-35 -46,-12 -47,-10 -41,155 l 6,167 120,23 c 172,33 179,32 237,-13 z"
     id="path8167" /><path
     d="m 4250,4150 c -121,-25 -330,-66 -465,-90 -282,-52 -277,-48 -144,-147 l 100,-75 192,42 c 238,51 235,57 78,-128 -72,-84 -140,-171 -151,-192 -19,-36 -45,-20 -312,192 -242,193 -298,230 -339,220 l -49,-13 v -627 -627 l 95,18 c 52,10 117,23 143,29 l 48,10 -12,331 c -12,306 -10,329 20,304 18,-15 114,-96 213,-180 l 180,-154 198,249 c 109,136 204,248 210,248 5,0 4,-148 -4,-330 -16,-372 -30,-345 156,-307 l 113,23 v 627 c 0,489 -5,627 -25,625 -14,-1 -124,-23 -245,-48 z"
     id="path8169" /><path
     d="m 2483,3880 c -10,-28 -133,-314 -272,-638 -139,-323 -250,-589 -247,-591 3,-2 38,-28 78,-58 144,-107 153,-99 318,318 169,427 160,414 216,298 l 43,-88 -50,-13 c -47,-12 -167,-197 -143,-221 5,-4 109,13 232,40 231,50 301,42 162,-19 -44,-20 -80,-43 -80,-51 0,-47 92,-197 121,-197 43,0 244,38 254,48 7,8 -272,572 -492,992 -111,212 -122,225 -140,180 z"
     id="path8171" /><path
     d="m 1530,3679 c -44,-7 -285,-55 -535,-106 -250,-51 -459,-93 -465,-93 -5,0 -10,-22 -10,-49 0,-111 183,-164 348,-99 36,14 37,6 27,-119 -12,-152 -17,-148 165,-106 l 109,26 1,117 v 116 l 130,27 c 234,49 366,-6 333,-139 -28,-109 -68,-130 -409,-209 l -326,-75 -4,-325 c -3,-206 3,-325 16,-324 11,0 74,12 140,26 l 120,25 -7,214 c -9,271 -7,272 295,41 l 227,-173 163,25 c 238,38 239,34 -17,222 -248,182 -254,189 -186,206 147,38 279,240 280,431 3,236 -162,379 -395,341 z"
     id="path8173" /><path
     d="m 5280,3262 -250,-54 -6,-84 c -4,-46 2,-84 12,-84 65,0 591,121 616,142 16,13 27,48 24,76 -8,71 -80,72 -396,4 z"
     id="path8175" /><path
     d="M 435,3159 C 120,3093 80,3077 80,3012 c 0,-91 32,-93 371,-26 l 319,64 6,85 c 8,102 29,101 -341,24 z"
     id="path8177" /><path
     d="m 544,2890 c -214,-47 -290,-90 -280,-157 12,-76 59,-83 289,-41 l 217,40 6,104 c 3,57 -1,103 -10,101 -9,-1 -109,-22 -222,-47 z"
     id="path8179" /><path
     d="m 5300,2865 c -135,-121 -91,-267 87,-294 59,-8 93,-24 93,-41 0,-36 -67,-56 -136,-41 -77,17 -164,-68 -113,-109 130,-109 389,2 389,167 0,77 -72,153 -144,153 -55,0 -119,38 -105,62 7,12 43,18 80,15 111,-10 202,104 104,130 -105,28 -194,14 -255,-42 z"
     id="path8181" /><path
     d="m 5150,2870 c -11,-3 -43,-11 -71,-18 -32,-7 -87,-59 -150,-142 l -99,-132 -6,111 c -5,93 -12,111 -43,111 -99,0 -101,-7 -101,-302 v -278 h 70 c 69,0 70,1 71,85 1,159 47,182 142,70 82,-97 147,-119 216,-76 24,15 7,42 -85,138 -138,146 -139,121 6,285 139,156 147,181 50,148 z"
     id="path8183" /><path
     d="m 4281,2708 c -321,-139 -280,-571 50,-544 180,15 313,148 200,199 -40,18 -57,15 -102,-20 -64,-51 -124,-55 -185,-12 -127,89 40,301 194,245 46,-16 142,41 142,85 0,62 -195,92 -299,47 z"
     id="path8185" /><path
     d="m 3875,2646 c -31,-8 -35,-39 -35,-295 v -286 l 65,13 65,14 6,284 c 6,307 9,299 -101,270 z"
     id="path8187" /><path
     d="m 3515,2583 -155,-30 v -69 c 0,-66 3,-68 60,-57 l 60,12 v -217 -217 l 65,13 65,14 6,213 5,214 65,17 c 53,13 65,27 70,80 8,75 3,75 -241,27 z"
     id="path8189" /><path
     d="m 3026,2481 c -123,-75 -123,-265 -1,-289 25,-5 70,-15 100,-21 61,-13 75,-64 20,-76 -19,-4 -57,0 -83,9 -51,18 -142,-43 -142,-96 0,-58 188,-86 276,-40 187,97 171,331 -23,332 -35,0 -75,8 -91,18 -45,29 -5,62 76,62 115,0 193,102 97,127 -83,23 -164,13 -229,-26 z"
     id="path8191" /><path
     d="m 636,2457 c -97,-35 -89,-177 10,-177 111,1 134,20 134,112 0,97 -26,108 -144,65 z"
     id="path8193" /><path
     d="m 2730,2439 c -44,-9 -114,-22 -155,-28 -70,-12 -75,-17 -75,-83 0,-69 0,-70 73,-56 l 72,13 -13,-199 c -14,-223 -15,-222 68,-210 l 60,9 v 216 216 l 65,7 c 57,5 66,14 71,71 7,72 -8,77 -166,44 z"
     id="path8195" /><path
     d="m 2315,2366 c -27,-7 -35,-30 -35,-108 0,-104 -2,-106 -115,-126 l -65,-11 v 100 c 0,103 -8,110 -95,86 -44,-11 -45,-19 -45,-279 v -268 h 70 70 v 120 c 0,119 0,120 58,120 32,0 73,5 90,12 27,10 32,-5 32,-90 v -102 h 70 70 v 280 c 0,301 3,294 -105,266 z"
     id="path8197" /><path
     d="m 1491,2214 c -239,-135 -231,-473 11,-521 177,-36 378,133 378,317 0,107 -306,62 -316,-47 l -7,-64 82,13 c 99,16 109,-17 19,-63 -77,-40 -147,-25 -189,40 -65,99 73,256 195,224 42,-11 136,50 136,87 0,65 -204,74 -309,14 z"
     id="path8199" /><path
     d="m 1125,2159 c -44,-17 -45,-26 -45,-291 v -273 l 45,12 c 25,7 56,13 70,13 19,0 25,69 25,280 0,296 0,297 -95,259 z"
     id="path8201" /><path
     d="m 860,2120 c -38,-8 -104,-21 -145,-29 l -75,-13 v -276 -277 l 65,13 c 62,13 65,18 67,113 l 1,99 94,17 c 90,17 93,20 93,87 0,77 13,74 -152,33 -46,-11 -51,-7 -45,35 6,42 22,50 122,65 114,17 115,18 115,85 0,74 -10,77 -140,48 z"
     id="path8203" /></g></g>
</svg>
