<?xml version="1.0" encoding="UTF-8" standalone="no"?>
<!-- Creator: CorelDRAW 2021.5 -->

<svg
   xml:space="preserve"
   width="350mm"
   height="250mm"
   version="1.1"
   style="clip-rule:evenodd;fill-rule:evenodd;image-rendering:optimizeQuality;shape-rendering:geometricPrecision;text-rendering:geometricPrecision"
   viewBox="0 0 35000 25000"
   id="svg46"
   sodipodi:docname="lower_main.svg"
   inkscape:version="1.2 (dc2aedaf03, 2022-05-15)"
   inkscape:export-filename="upper.svg"
   inkscape:export-xdpi="96"
   inkscape:export-ydpi="96"
   xmlns:inkscape="http://www.inkscape.org/namespaces/inkscape"
   xmlns:sodipodi="http://sodipodi.sourceforge.net/DTD/sodipodi-0.dtd"
   xmlns="http://www.w3.org/2000/svg"
   xmlns:svg="http://www.w3.org/2000/svg"><sodipodi:namedview
   id="namedview48"
   pagecolor="#ffffff"
   bordercolor="#000000"
   borderopacity="1"
   inkscape:showpageshadow="false"
   inkscape:pageopacity="1"
   inkscape:pagecheckerboard="1"
   inkscape:deskcolor="#454545"
   inkscape:document-units="mm"
   showgrid="false"
   inkscape:zoom="0.75459098"
   inkscape:cx="597.67478"
   inkscape:cy="380.3385"
   inkscape:window-width="1920"
   inkscape:window-height="1017"
   inkscape:window-x="-8"
   inkscape:window-y="-8"
   inkscape:window-maximized="1"
   inkscape:current-layer="Layer_x0020_1" />
 <defs
   id="defs4">
  <style
   type="text/css"
   id="style2">
   <![CDATA[
    .str0 {stroke:red;stroke-width:7.62;stroke-miterlimit:22.9256}
    .fil0 {fill:none}
   ]]>
  </style>
 </defs>
 <g
   id="Layer_x0020_1"
   inkscape:label="Layer 1"
   inkscape:groupmode="layer">
  <metadata
   id="CorelCorpID_0Corel-Layer" />
  <rect
   class="fil0 str0"
   x="1445.973"
   y="886.33575"
   width="31998.754"
   height="20998.756"
   id="rect7"
   rx="250"
   ry="250" /><path
   id="rect7-0"
   style="clip-rule:evenodd;fill:none;fill-rule:evenodd;stroke:#ff0000;stroke-width:7.6;stroke-miterlimit:22.9256;stroke-dasharray:none;image-rendering:optimizeQuality;shape-rendering:geometricPrecision;text-rendering:geometricPrecision"
   class="fil0 str0"
   d="M 9947.765 21191.575 L 9947.765 21586.796 L 16945.374 21586.796 L 16945.374 21191.575 L 9947.765 21191.575 z M 17945.365 21191.575 L 17945.365 21586.796 L 24942.974 21586.796 L 24942.974 21191.575 L 17945.365 21191.575 z " /><rect
   class="fil0 str0"
   x="1745.3"
   y="7887.3521"
   width="396.73172"
   height="6996.7236"
   id="rect7-0-8"
   style="clip-rule:evenodd;fill:none;fill-rule:evenodd;stroke:#ff0000;stroke-width:7.6;stroke-miterlimit:22.9256;stroke-dasharray:none;image-rendering:optimizeQuality;shape-rendering:geometricPrecision;text-rendering:geometricPrecision" /><rect
   class="fil0 str0"
   x="32748.701"
   y="7887.3521"
   width="396.73172"
   height="6996.7236"
   id="rect7-0-8-9"
   style="clip-rule:evenodd;fill:none;fill-rule:evenodd;stroke:#ff0000;stroke-width:7.6;stroke-miterlimit:22.9256;stroke-dasharray:none;image-rendering:optimizeQuality;shape-rendering:geometricPrecision;text-rendering:geometricPrecision" /><path
   id="rect7-0-0"
   style="clip-rule:evenodd;fill:none;fill-rule:evenodd;stroke:#ff0000;stroke-width:7.6;stroke-miterlimit:22.9256;stroke-dasharray:none;image-rendering:optimizeQuality;shape-rendering:geometricPrecision;text-rendering:geometricPrecision"
   class="fil0 str0"
   d="M 9947.765 1184.6822 L 9947.765 1579.9036 L 16945.374 1579.9036 L 16945.374 1184.6822 L 9947.765 1184.6822 z M 17945.365 1184.6822 L 17945.365 1579.9036 L 24942.974 1579.9036 L 24942.974 1184.6822 L 17945.365 1184.6822 z " />
  <circle
   class="fil0 str0"
   cx="3145.71"
   cy="2586.1101"
   r="200"
   id="circle9" />
  <circle
   class="fil0 str0"
   cx="31745.01"
   cy="2586.1101"
   r="200"
   id="circle11" />
  <circle
   class="fil0 str0"
   cx="3145.71"
   cy="20185.311"
   r="200"
   id="circle13" />
  <circle
   class="fil0 str0"
   cx="31745.01"
   cy="20185.311"
   r="200"
   id="circle15" />
  
  
  
  
  
  
  
  
  
  
  
  
  
  
 <circle
   class="fil0 str0"
   cx="17445.35"
   cy="2586.1101"
   r="200"
   id="circle9-7"
   style="clip-rule:evenodd;fill:none;fill-rule:evenodd;stroke:#ff0000;stroke-width:7.62;stroke-miterlimit:22.9256;image-rendering:optimizeQuality;shape-rendering:geometricPrecision;text-rendering:geometricPrecision" /><circle
   class="fil0 str0"
   cx="17445.35"
   cy="20185.311"
   r="200"
   id="circle9-7-9"
   style="clip-rule:evenodd;fill:none;fill-rule:evenodd;stroke:#ff0000;stroke-width:7.62;stroke-miterlimit:22.9256;image-rendering:optimizeQuality;shape-rendering:geometricPrecision;text-rendering:geometricPrecision" /><path
   id="path22842-57"
   style="fill:none;stroke:#ff1f1f;stroke-width:10"
   d="m 28030.008,16600.001 a 100,100 0 0 1 -100,100 100,100 0 0 1 -100,-100 100,100 0 0 1 100,-100 100,100 0 0 1 100,100 z m 0,-1139.993 a 100,100 0 0 1 -100,100 100,100 0 0 1 -100,-100 100,100 0 0 1 100,-100 100,100 0 0 1 100,100 z m -4699.992,1139.993 a 100,100 0 0 1 -100,100 100,100 0 0 1 -100,-100 100,100 0 0 1 100,-100 100,100 0 0 1 100,100 z m 0,-1139.993 a 100,100 0 0 1 -100,100 100,100 0 0 1 -100,-100 100,100 0 0 1 100,-100 100,100 0 0 1 100,100 z" /><circle
   class="fil0 str0"
   cx="5145.7002"
   cy="2586.1101"
   id="circle9-9"
   style="clip-rule:evenodd;fill:none;fill-rule:evenodd;stroke:#ff0000;stroke-width:7.62;stroke-miterlimit:22.9256;image-rendering:optimizeQuality;shape-rendering:geometricPrecision;text-rendering:geometricPrecision"
   r="146.19" /><circle
   class="fil0 str0"
   cx="5145.7002"
   cy="20185.311"
   id="circle9-9-2"
   style="clip-rule:evenodd;fill:none;fill-rule:evenodd;stroke:#ff0000;stroke-width:7.62;stroke-miterlimit:22.9256;image-rendering:optimizeQuality;shape-rendering:geometricPrecision;text-rendering:geometricPrecision"
   r="146.19" /><circle
   class="fil0 str0"
   cx="29745"
   cy="20185.311"
   id="circle9-9-5"
   style="clip-rule:evenodd;fill:none;fill-rule:evenodd;stroke:#ff0000;stroke-width:7.62;stroke-miterlimit:22.9256;image-rendering:optimizeQuality;shape-rendering:geometricPrecision;text-rendering:geometricPrecision"
   r="146.19" /><circle
   class="fil0 str0"
   cx="29745"
   cy="2586.1101"
   id="circle9-9-7"
   style="clip-rule:evenodd;fill:none;fill-rule:evenodd;stroke:#ff0000;stroke-width:7.62;stroke-miterlimit:22.9256;image-rendering:optimizeQuality;shape-rendering:geometricPrecision;text-rendering:geometricPrecision"
   r="146.19" /><path
   id="path458-7-6"
   style="clip-rule:evenodd;fill:none;fill-rule:evenodd;stroke:#ff0000;stroke-width:10;image-rendering:optimizeQuality;shape-rendering:geometricPrecision;text-rendering:geometricPrecision"
   d="m 30155,17880.009 a 174.99954,175 0 0 1 -175,175 174.99954,175 0 0 1 -174.999,-175 174.99954,175 0 0 1 174.999,-175 174.99954,175 0 0 1 175,175 z m -8800.001,0 a 174.99954,175 0 0 1 -174.999,175 174.99954,175 0 0 1 -175,-175 174.99954,175 0 0 1 175,-175 174.99954,175 0 0 1 174.999,175 z m 8800.025,-3700.008 a 175,175 0 0 1 -175,175.001 175,175 0 0 1 -175,-175.001 175,175 0 0 1 175,-175.001 175,175 0 0 1 175,175.001 z m -8800.024,0 a 175,175 0 0 1 -175,175.001 175,175 0 0 1 -175,-175.001 175,175 0 0 1 175,-175.001 175,175 0 0 1 175,175.001 z" /></g>
</svg>
