<?xml version="1.0" encoding="UTF-8" standalone="no"?>
<!-- Creator: CorelDRAW 2021.5 -->

<svg
   xml:space="preserve"
   width="550mm"
   height="550mm"
   version="1.1"
   style="clip-rule:evenodd;fill-rule:evenodd;image-rendering:optimizeQuality;shape-rendering:geometricPrecision;text-rendering:geometricPrecision"
   viewBox="0 0 55000 55000"
   id="svg46"
   sodipodi:docname="sides_6cm.svg"
   inkscape:version="1.2 (dc2aedaf03, 2022-05-15)"
   xmlns:inkscape="http://www.inkscape.org/namespaces/inkscape"
   xmlns:sodipodi="http://sodipodi.sourceforge.net/DTD/sodipodi-0.dtd"
   xmlns="http://www.w3.org/2000/svg"
   xmlns:svg="http://www.w3.org/2000/svg"><sodipodi:namedview
   id="namedview352"
   pagecolor="#ffffff"
   bordercolor="#ffffff"
   borderopacity="1"
   inkscape:showpageshadow="0"
   inkscape:pageopacity="1"
   inkscape:pagecheckerboard="1"
   inkscape:deskcolor="#505050"
   inkscape:document-units="mm"
   showgrid="false"
   showguides="false"
   inkscape:zoom="0.62637286"
   inkscape:cx="482.93918"
   inkscape:cy="838.15891"
   inkscape:window-width="1920"
   inkscape:window-height="1017"
   inkscape:window-x="-8"
   inkscape:window-y="-8"
   inkscape:window-maximized="1"
   inkscape:current-layer="Layer_x0020_1"><sodipodi:guide
     position="1680.1075,29619.174"
     orientation="1,0"
     id="guide1635"
     inkscape:locked="false" /><sodipodi:guide
     position="31888.973,31640.975"
     orientation="1,0"
     id="guide1637"
     inkscape:locked="false" /><sodipodi:guide
     position="9166.1988,39001.391"
     orientation="0,-1"
     id="guide1763"
     inkscape:locked="false" /><sodipodi:guide
     position="29399.421,19792.502"
     orientation="0,-1"
     id="guide1765"
     inkscape:locked="false" /></sodipodi:namedview>
 <defs
   id="defs4"><style
     type="text/css"
     id="style2">
   <![CDATA[
    .str0 {stroke:red;stroke-width:7.62;stroke-miterlimit:22.9256}
    .fil0 {fill:none}
   ]]>
  </style></defs>
 <g
   id="Layer_x0020_1"
   inkscape:label="Layer 1"
   inkscape:groupmode="layer"
   style="display:inline">
  <metadata
   id="CorelCorpID_0Corel-Layer" />
  
  
  
  
  
  
  
  
  
  
  
  
  
  
  
  
  
  
  
 <path
   id="rect7"
   style="clip-rule:evenodd;fill:none;fill-rule:evenodd;stroke:#ff0000;stroke-width:7.4804;stroke-miterlimit:22.9256;stroke-dasharray:none;image-rendering:optimizeQuality;shape-rendering:geometricPrecision;text-rendering:geometricPrecision"
   class="fil0 str0"
   d="M 9258.3493 4571.6071 L 9258.3493 4960.7306 L 1255.0138 4960.7306 L 1255.0138 6958.9548 L 1653.3357 6958.9548 L 1653.3357 8958.5743 L 1255.0138 8958.5743 L 1255.0138 10956.799 L 9258.4009 10956.799 L 9258.4009 11344.733 L 24254.178 11344.733 L 24254.178 10956.799 L 32257.461 10956.799 L 32257.461 8958.5743 L 31859.191 8958.5743 L 31859.191 6958.9548 L 32257.461 6958.9548 L 32257.461 4960.7306 L 24254.178 4960.7306 L 24254.178 4571.6071 L 9258.3493 4571.6071 z " /><path
   id="rect7-8"
   style="clip-rule:evenodd;display:inline;fill:none;fill-rule:evenodd;stroke:#ff0000;stroke-width:7.4804;stroke-miterlimit:22.9256;stroke-dasharray:none;image-rendering:optimizeQuality;shape-rendering:geometricPrecision;text-rendering:geometricPrecision"
   class="fil0 str0"
   d="m 9258.3501,13740.351 v 389.123 H 1255.0142 v 1998.224 h 398.3219 v 1999.619 h -398.3219 v 1998.225 h 8003.3869 v 387.934 H 24254.178 v -387.934 h 8003.283 v -1998.225 h -398.27 v -1999.619 h 398.27 v -1998.224 h -8003.283 v -389.123 z" /><path
   id="rect7-0-8-9-1-1-5"
   style="clip-rule:evenodd;fill:none;fill-rule:evenodd;stroke:#ff0000;stroke-width:7.6;stroke-miterlimit:22.9256;stroke-dasharray:none;image-rendering:optimizeQuality;shape-rendering:geometricPrecision;text-rendering:geometricPrecision"
   class="fil0 str0"
   d="m 21548.461,24950.771 h -397.237 v -1998.638 h -6103.503 v -390.002 H 8049.9051 v 390.002 h -6103.555 v 1998.638 h -397.236 v 1999.619 h 397.236 v 1998.586 h 6103.555 v 390.054 h 6997.8159 v -390.054 h 6103.503 V 26950.39 h 397.237 z" /><path
   id="path2053"
   style="fill:none;stroke:#ff1111;stroke-width:7.6;stroke-miterlimit:22.93;stroke-dasharray:none"
   d="m 15806.193,15757.101 a 169.77109,169.77109 0 0 0 -169.757,169.808 169.77109,169.77109 0 0 0 169.757,169.757 169.77109,169.77109 0 0 0 169.757,-169.757 169.77109,169.77109 0 0 0 -169.757,-169.808 z m 950.019,171.72 a 1198.1029,1198.1029 0 0 0 -1198.066,1198.067 1198.1029,1198.1029 0 0 0 1198.066,1198.118 1198.1029,1198.1029 0 0 0 1198.118,-1198.118 1198.1029,1198.1029 0 0 0 -1198.118,-1198.067 z m 950.02,2228.34 a 169.77109,169.77109 0 0 0 -169.757,169.757 169.77109,169.77109 0 0 0 169.757,169.808 169.77109,169.77109 0 0 0 169.757,-169.808 169.77109,169.77109 0 0 0 -169.757,-169.757 z" /><path
   id="path3581-4"
   style="clip-rule:evenodd;fill:none;fill-rule:evenodd;stroke:#ff1111;stroke-width:7.6;stroke-miterlimit:22.93;stroke-dasharray:none;image-rendering:optimizeQuality;shape-rendering:geometricPrecision;text-rendering:geometricPrecision"
   d="m 14896.954,25950.58 a 1196.5757,1196.5758 0 0 0 -1196.566,-1196.568 1196.5757,1196.5758 0 0 0 -1196.568,1196.568 1196.5757,1196.5758 0 0 0 1196.568,1196.568 1196.5757,1196.5758 0 0 0 1196.566,-1196.568 z m -4303.148,0 a 1196.5757,1196.5758 0 0 0 -1196.5669,-1196.568 1196.5757,1196.5758 0 0 0 -1196.62,1196.568 1196.5757,1196.5758 0 0 0 1196.62,1196.568 1196.5757,1196.5758 0 0 0 1196.5669,-1196.568 z" /><path
   id="path559"
   style="fill:none;stroke:#ff1111;stroke-width:7.6;stroke-miterlimit:22.93;stroke-dasharray:none"
   d="m 4402.9351,7810.3238 a 147.84245,147.84244 0 0 0 -147.8462,147.8463 147.84245,147.84244 0 0 0 147.8462,147.8462 147.84245,147.84244 0 0 0 147.8463,-147.8462 147.84245,147.84244 0 0 0 -147.8463,-147.8463 z m 24706.6049,0 a 147.84245,147.84244 0 0 0 -147.846,147.8463 147.84245,147.84244 0 0 0 147.846,147.8462 147.84245,147.84244 0 0 0 147.846,-147.8462 147.84245,147.84244 0 0 0 -147.846,-147.8463 z" /><path
   id="path559-8"
   style="clip-rule:evenodd;display:inline;fill:none;fill-rule:evenodd;stroke:#ff1111;stroke-width:7.6;stroke-miterlimit:22.93;stroke-dasharray:none;image-rendering:optimizeQuality;shape-rendering:geometricPrecision;text-rendering:geometricPrecision"
   d="m 4402.9355,16979.067 a 147.84245,147.84244 0 0 0 -147.8462,147.846 147.84245,147.84244 0 0 0 147.8462,147.846 147.84245,147.84244 0 0 0 147.8463,-147.846 147.84245,147.84244 0 0 0 -147.8463,-147.846 z m 24706.6045,0 a 147.84245,147.84244 0 0 0 -147.846,147.846 147.84245,147.84244 0 0 0 147.846,147.846 147.84245,147.84244 0 0 0 147.846,-147.846 147.84245,147.84244 0 0 0 -147.846,-147.846 z" /><path
   id="path1242"
   style="fill:none;stroke:#ff1111;stroke-width:7.6;stroke-miterlimit:22.93;stroke-dasharray:none"
   d="m 4696.0019,25803.69 a 146.88544,146.88544 0 0 0 -146.9161,146.865 146.88544,146.88544 0 0 0 146.9161,146.916 146.88544,146.88544 0 0 0 146.8644,-146.916 146.88544,146.88544 0 0 0 -146.8644,-146.865 z m 13705.5701,0 a 146.88544,146.88544 0 0 0 -146.864,146.865 146.88544,146.88544 0 0 0 146.864,146.916 146.88544,146.88544 0 0 0 146.917,-146.916 146.88544,146.88544 0 0 0 -146.917,-146.865 z" /></g>
</svg>
