<?xml version="1.0" encoding="UTF-8" standalone="no"?>
<!-- Creator: CorelDRAW 2021.5 -->

<svg
   xml:space="preserve"
   width="400mm"
   height="300mm"
   version="1.1"
   style="clip-rule:evenodd;fill-rule:evenodd;image-rendering:optimizeQuality;shape-rendering:geometricPrecision;text-rendering:geometricPrecision"
   viewBox="0 0 40000 30000"
   id="svg46"
   sodipodi:docname="sides_4cm.svg"
   inkscape:version="1.2.1 (9c6d41e410, 2022-07-14)"
   xmlns:inkscape="http://www.inkscape.org/namespaces/inkscape"
   xmlns:sodipodi="http://sodipodi.sourceforge.net/DTD/sodipodi-0.dtd"
   xmlns="http://www.w3.org/2000/svg"
   xmlns:svg="http://www.w3.org/2000/svg"><sodipodi:namedview
   id="namedview352"
   pagecolor="#ffffff"
   bordercolor="#ffffff"
   borderopacity="1"
   inkscape:showpageshadow="0"
   inkscape:pageopacity="1"
   inkscape:pagecheckerboard="1"
   inkscape:deskcolor="#505050"
   inkscape:document-units="mm"
   showgrid="false"
   showguides="false"
   inkscape:zoom="0.62637286"
   inkscape:cx="744.76406"
   inkscape:cy="547.59716"
   inkscape:window-width="1920"
   inkscape:window-height="1017"
   inkscape:window-x="1912"
   inkscape:window-y="-8"
   inkscape:window-maximized="1"
   inkscape:current-layer="Layer_x0020_1"><sodipodi:guide
     position="1680.1077,4619.1746"
     orientation="1,0"
     id="guide1635"
     inkscape:locked="false" /><sodipodi:guide
     position="31888.973,6640.9758"
     orientation="1,0"
     id="guide1637"
     inkscape:locked="false" /><sodipodi:guide
     position="9166.199,14001.392"
     orientation="0,-1"
     id="guide1763"
     inkscape:locked="false" /><sodipodi:guide
     position="29399.421,-5207.4965"
     orientation="0,-1"
     id="guide1765"
     inkscape:locked="false" /></sodipodi:namedview>
 <defs
   id="defs4"><style
     type="text/css"
     id="style2">
   <![CDATA[
    .str0 {stroke:red;stroke-width:7.62;stroke-miterlimit:22.9256}
    .fil0 {fill:none}
   ]]>
  </style></defs>
 <g
   id="Layer_x0020_1"
   inkscape:label="Layer 1"
   inkscape:groupmode="layer"
   style="display:inline">
  <metadata
   id="CorelCorpID_0Corel-Layer" />
  
  
  
  
  
  
  
  
  
  
  
  
  
  
  
  
  
  
  
 <path
   id="rect7"
   style="clip-rule:evenodd;fill:none;fill-rule:evenodd;stroke:#ff0000;stroke-width:7.4804;stroke-miterlimit:22.9256;stroke-dasharray:none;image-rendering:optimizeQuality;shape-rendering:geometricPrecision;text-rendering:geometricPrecision"
   class="fil0 str0"
   d="m 9258.3493,1271.6402 v 189.092 H 1155.039 v 998.2137 h 398.3219 V 4458.5654 H 1155.039 l -0.037,998.1656 h 8103.3619 v 187.952 H 24254.141 v -187.952 h 8103.256 l 0.04,-998.1656 h -398.27 V 2458.9459 h 398.27 v -998.2137 h -8103.256 v -189.092 z"
   sodipodi:nodetypes="ccccccccccccccccccccc" /><path
   id="rect7-8"
   style="clip-rule:evenodd;display:inline;fill:none;fill-rule:evenodd;stroke:#ff0000;stroke-width:7.4804;stroke-miterlimit:22.9256;stroke-dasharray:none;image-rendering:optimizeQuality;shape-rendering:geometricPrecision;text-rendering:geometricPrecision"
   class="fil0 str0"
   d="m 9258.3501,7440.3399 v 189.092 H 1155.039 v 998.214 h 398.3219 V 10627.265 H 1155.039 l -0.037,998.209 h 8103.362 v 187.952 h 14995.777 v -187.952 h 8103.256 l 0.04,-998.209 h -398.27 V 8627.6459 h 398.27 v -998.214 h -8103.256 v -189.092 z"
   sodipodi:nodetypes="ccccccccccccccccccccc" /><path
   id="rect7-0-8-9-1-1-5"
   style="clip-rule:evenodd;fill:none;fill-rule:evenodd;stroke:#ff0000;stroke-width:7.6;stroke-miterlimit:22.9256;stroke-dasharray:none;image-rendering:optimizeQuality;shape-rendering:geometricPrecision;text-rendering:geometricPrecision"
   class="fil0 str0"
   d="m 21648.435,15250.745 h -397.237 v -998.675 h -6203.477 v -189.971 H 8049.9051 v 189.971 H 1846.3179 v 998.675 h -397.236 v 1999.619 h 397.236 l -0.037,998.543 h 6203.5872 v 190.072 h 6997.8159 v -190.072 h 6203.477 l 0.04,-998.543 h 397.237 z"
   sodipodi:nodetypes="ccccccccccccccccccccc" /><path
   id="path2053"
   style="fill:none;stroke:#ff1111;stroke-width:7.6;stroke-miterlimit:22.93;stroke-dasharray:none"
   d="m 15806.193,8257.0549 a 169.77109,169.77109 0 0 0 -169.757,169.808 169.77109,169.77109 0 0 0 169.757,169.757 169.77109,169.77109 0 0 0 169.757,-169.757 169.77109,169.77109 0 0 0 -169.757,-169.808 z m 950.019,171.72 A 1198.1029,1198.1029 0 0 0 15558.146,9626.842 1198.1029,1198.1029 0 0 0 16756.212,10824.96 1198.1029,1198.1029 0 0 0 17954.33,9626.842 1198.1029,1198.1029 0 0 0 16756.212,8428.7749 Z m 950.02,2228.3401 a 169.77109,169.77109 0 0 0 -169.757,169.757 169.77109,169.77109 0 0 0 169.757,169.808 169.77109,169.77109 0 0 0 169.757,-169.808 169.77109,169.77109 0 0 0 -169.757,-169.757 z" /><path
   id="path3581-4"
   style="clip-rule:evenodd;fill:none;fill-rule:evenodd;stroke:#ff1111;stroke-width:7.6;stroke-miterlimit:22.93;stroke-dasharray:none;image-rendering:optimizeQuality;shape-rendering:geometricPrecision;text-rendering:geometricPrecision"
   d="m 14896.954,16250.522 a 1196.5757,1196.5758 0 0 0 -1196.566,-1196.568 1196.5757,1196.5758 0 0 0 -1196.568,1196.568 1196.5757,1196.5758 0 0 0 1196.568,1196.568 1196.5757,1196.5758 0 0 0 1196.566,-1196.568 z m -4303.148,0 a 1196.5757,1196.5758 0 0 0 -1196.5669,-1196.568 1196.5757,1196.5758 0 0 0 -1196.62,1196.568 1196.5757,1196.5758 0 0 0 1196.62,1196.568 1196.5757,1196.5758 0 0 0 1196.5669,-1196.568 z" /><path
   id="path559"
   style="fill:none;stroke:#ff1111;stroke-width:7.6;stroke-miterlimit:22.93;stroke-dasharray:none"
   d="m 4402.9351,3310.2557 a 147.84245,147.84244 0 0 0 -147.8462,147.8463 147.84245,147.84244 0 0 0 147.8462,147.8462 147.84245,147.84244 0 0 0 147.8463,-147.8462 147.84245,147.84244 0 0 0 -147.8463,-147.8463 z m 24706.6049,0 a 147.84245,147.84244 0 0 0 -147.846,147.8463 147.84245,147.84244 0 0 0 147.846,147.8462 147.84245,147.84244 0 0 0 147.846,-147.8462 147.84245,147.84244 0 0 0 -147.846,-147.8463 z" /><path
   id="path559-8"
   style="clip-rule:evenodd;display:inline;fill:none;fill-rule:evenodd;stroke:#ff1111;stroke-width:7.6;stroke-miterlimit:22.93;stroke-dasharray:none;image-rendering:optimizeQuality;shape-rendering:geometricPrecision;text-rendering:geometricPrecision"
   d="m 4402.9355,9479.021 a 147.84245,147.84244 0 0 0 -147.8462,147.846 147.84245,147.84244 0 0 0 147.8462,147.846 147.84245,147.84244 0 0 0 147.8463,-147.846 147.84245,147.84244 0 0 0 -147.8463,-147.846 z m 24706.6045,0 a 147.84245,147.84244 0 0 0 -147.846,147.846 147.84245,147.84244 0 0 0 147.846,147.846 147.84245,147.84244 0 0 0 147.846,-147.846 147.84245,147.84244 0 0 0 -147.846,-147.846 z" /><path
   id="path1242"
   style="fill:none;stroke:#ff1111;stroke-width:7.6;stroke-miterlimit:22.93;stroke-dasharray:none"
   d="m 4696.0019,16103.632 a 146.88544,146.88544 0 0 0 -146.9161,146.865 146.88544,146.88544 0 0 0 146.9161,146.916 146.88544,146.88544 0 0 0 146.8644,-146.916 146.88544,146.88544 0 0 0 -146.8644,-146.865 z m 13705.5701,0 a 146.88544,146.88544 0 0 0 -146.864,146.865 146.88544,146.88544 0 0 0 146.864,146.916 146.88544,146.88544 0 0 0 146.917,-146.916 146.88544,146.88544 0 0 0 -146.917,-146.865 z" /></g>
</svg>
