<?xml version="1.0" encoding="UTF-8" standalone="no"?>
<!-- Creator: CorelDRAW 2021.5 -->

<svg
   xml:space="preserve"
   width="350mm"
   height="250mm"
   version="1.1"
   style="clip-rule:evenodd;fill-rule:evenodd;image-rendering:optimizeQuality;shape-rendering:geometricPrecision;text-rendering:geometricPrecision"
   viewBox="0 0 35000 25000"
   id="svg46"
   sodipodi:docname="upper_main.svg"
   inkscape:version="1.2 (dc2aedaf03, 2022-05-15)"
   inkscape:export-filename="upper.svg"
   inkscape:export-xdpi="96"
   inkscape:export-ydpi="96"
   xmlns:inkscape="http://www.inkscape.org/namespaces/inkscape"
   xmlns:sodipodi="http://sodipodi.sourceforge.net/DTD/sodipodi-0.dtd"
   xmlns="http://www.w3.org/2000/svg"
   xmlns:svg="http://www.w3.org/2000/svg"><sodipodi:namedview
   id="namedview48"
   pagecolor="#ffffff"
   bordercolor="#000000"
   borderopacity="1"
   inkscape:showpageshadow="false"
   inkscape:pageopacity="1"
   inkscape:pagecheckerboard="1"
   inkscape:deskcolor="#454545"
   inkscape:document-units="mm"
   showgrid="false"
   inkscape:zoom="1.0671528"
   inkscape:cx="510.70475"
   inkscape:cy="415.12331"
   inkscape:window-width="1920"
   inkscape:window-height="1017"
   inkscape:window-x="-8"
   inkscape:window-y="-8"
   inkscape:window-maximized="1"
   inkscape:current-layer="Layer_x0020_1" />
 <defs
   id="defs4">
  <style
   type="text/css"
   id="style2">
   <![CDATA[
    .str0 {stroke:red;stroke-width:7.62;stroke-miterlimit:22.9256}
    .fil0 {fill:none}
   ]]>
  </style>
 </defs>
 <g
   id="Layer_x0020_1"
   inkscape:label="Layer 1"
   inkscape:groupmode="layer">
  <metadata
   id="CorelCorpID_0Corel-Layer" />
  <rect
   class="fil0 str0"
   x="1445.973"
   y="886.33575"
   width="31998.754"
   height="20998.756"
   id="rect7"
   rx="250"
   ry="250" /><path
   id="rect7-0"
   style="clip-rule:evenodd;fill:none;fill-rule:evenodd;stroke:#ff0000;stroke-width:7.6;stroke-miterlimit:22.9256;stroke-dasharray:none;image-rendering:optimizeQuality;shape-rendering:geometricPrecision;text-rendering:geometricPrecision"
   class="fil0 str0"
   d="M 9947.765 21191.575 L 9947.765 21586.796 L 16945.374 21586.796 L 16945.374 21191.575 L 9947.765 21191.575 z M 17945.365 21191.575 L 17945.365 21586.796 L 24942.974 21586.796 L 24942.974 21191.575 L 17945.365 21191.575 z " /><rect
   class="fil0 str0"
   x="1745.3"
   y="7887.3521"
   width="396.73172"
   height="6996.7236"
   id="rect7-0-8"
   style="clip-rule:evenodd;fill:none;fill-rule:evenodd;stroke:#ff0000;stroke-width:7.6;stroke-miterlimit:22.9256;stroke-dasharray:none;image-rendering:optimizeQuality;shape-rendering:geometricPrecision;text-rendering:geometricPrecision" /><rect
   class="fil0 str0"
   x="32748.701"
   y="7887.3521"
   width="396.73172"
   height="6996.7236"
   id="rect7-0-8-9"
   style="clip-rule:evenodd;fill:none;fill-rule:evenodd;stroke:#ff0000;stroke-width:7.6;stroke-miterlimit:22.9256;stroke-dasharray:none;image-rendering:optimizeQuality;shape-rendering:geometricPrecision;text-rendering:geometricPrecision" /><path
   id="rect7-0-0"
   style="clip-rule:evenodd;fill:none;fill-rule:evenodd;stroke:#ff0000;stroke-width:7.6;stroke-miterlimit:22.9256;stroke-dasharray:none;image-rendering:optimizeQuality;shape-rendering:geometricPrecision;text-rendering:geometricPrecision"
   class="fil0 str0"
   d="M 9947.765 1184.6822 L 9947.765 1579.9036 L 16945.374 1579.9036 L 16945.374 1184.6822 L 9947.765 1184.6822 z M 17945.365 1184.6822 L 17945.365 1579.9036 L 24942.974 1579.9036 L 24942.974 1184.6822 L 17945.365 1184.6822 z " />
  <circle
   class="fil0 str0"
   cx="3145.71"
   cy="2586.1101"
   r="200"
   id="circle9" />
  <circle
   class="fil0 str0"
   cx="31745.01"
   cy="2586.1101"
   r="200"
   id="circle11" />
  <circle
   class="fil0 str0"
   cx="3145.71"
   cy="20185.311"
   r="200"
   id="circle13" />
  <circle
   class="fil0 str0"
   cx="31745.01"
   cy="20185.311"
   r="200"
   id="circle15" />
  
  
  
  
  
  
  
  
  
  
  
  
  
  
 <circle
   class="fil0 str0"
   cx="17445.35"
   cy="2586.1101"
   r="200"
   id="circle9-7"
   style="clip-rule:evenodd;fill:none;fill-rule:evenodd;stroke:#ff0000;stroke-width:7.62;stroke-miterlimit:22.9256;image-rendering:optimizeQuality;shape-rendering:geometricPrecision;text-rendering:geometricPrecision" /><circle
   class="fil0 str0"
   cx="17445.35"
   cy="20185.311"
   r="200"
   id="circle9-7-9"
   style="clip-rule:evenodd;fill:none;fill-rule:evenodd;stroke:#ff0000;stroke-width:7.62;stroke-miterlimit:22.9256;image-rendering:optimizeQuality;shape-rendering:geometricPrecision;text-rendering:geometricPrecision" /><path
   style="fill:none;stroke:#ff0303;stroke-width:4.99999"
   d="m 19235.14,10855.239 a 1196.1901,1196.1901 0 0 1 -1196.19,1196.19 1196.1901,1196.1901 0 0 1 -1196.191,-1196.19 1196.1901,1196.1901 0 0 1 1196.191,-1196.1879 1196.1901,1196.1901 0 0 1 1196.19,1196.1879 z"
   id="path1045" /><path
   style="fill:none;stroke:#ff0303;stroke-width:4.99999"
   d="m 19235.14,7955.2454 a 1196.1901,1196.1901 0 0 1 -1196.19,1196.1887 1196.1901,1196.1901 0 0 1 -1196.191,-1196.1887 1196.1901,1196.1901 0 0 1 1196.191,-1196.19 1196.1901,1196.1901 0 0 1 1196.19,1196.19 z"
   id="path1043" /><path
   style="fill:none;stroke:#ff0303;stroke-width:4.99999"
   d="m 21785.057,9455.2413 a 1196.1901,1196.1901 0 0 1 -1196.192,1196.1867 1196.1901,1196.1901 0 0 1 -1196.19,-1196.1867 1196.1901,1196.1901 0 0 1 1196.19,-1196.1869 1196.1901,1196.1901 0 0 1 1196.192,1196.1869 z"
   id="path1041" /><path
   style="fill:none;stroke:#ff0303;stroke-width:4.99999"
   d="m 21785.057,6555.2456 a 1196.1901,1196.1901 0 0 1 -1196.191,1196.1898 1196.1901,1196.1901 0 0 1 -1196.19,-1196.1899 1196.1901,1196.1901 0 0 1 1196.19,-1196.1901 1196.1901,1196.1901 0 0 1 1196.191,1196.1902 z"
   id="path1039" /><path
   style="fill:none;stroke:#ff0303;stroke-width:4.99999"
   d="m 27385.022,6555.2456 a 1196.1901,1196.1901 0 0 1 -1196.19,1196.1898 1196.1901,1196.1901 0 0 1 -1196.191,-1196.1898 1196.1901,1196.1901 0 0 1 1196.191,-1196.1901 1196.1901,1196.1901 0 0 1 1196.19,1196.1901 z"
   id="path1037" /><path
   style="fill:none;stroke:#ff0303;stroke-width:4.99999"
   d="m 27385.022,9455.2413 a 1196.1901,1196.1901 0 0 1 -1196.19,1196.1867 1196.1901,1196.1901 0 0 1 -1196.191,-1196.1867 1196.1901,1196.1901 0 0 1 1196.191,-1196.1869 1196.1901,1196.1901 0 0 1 1196.19,1196.1869 z"
   id="path1035" /><path
   style="fill:none;stroke:#ff0303;stroke-width:4.99999"
   d="m 24585.022,8728.2184 a 1196.1901,1196.1901 0 0 1 -1196.191,1196.1842 1196.1901,1196.1901 0 0 1 -1196.19,-1196.1842 1196.1901,1196.1901 0 0 1 1196.191,-1196.19 1196.1901,1196.1901 0 0 1 1196.19,1196.19 z"
   id="path1033" /><path
   style="fill:none;stroke:#ff0303;stroke-width:4.99999"
   d="M 24585.022,5828.2201 A 1196.1901,1196.1901 0 0 1 23388.833,7024.4104 1196.1901,1196.1901 0 0 1 22192.642,5828.22 a 1196.1901,1196.1901 0 0 1 1196.19,-1196.19 1196.1901,1196.1901 0 0 1 1196.19,1196.1901 z"
   id="path1031" /><path
   style="fill:none;stroke:#ff0303;stroke-width:4.99999"
   d="m 19538.951,14522.723 a 1500,1500 0 0 1 -1500.001,1500 1500,1500 0 0 1 -1500,-1500 1500,1500 0 0 1 1500.001,-1500 1500,1500 0 0 1 1500,1500 z"
   id="path1029" /><path
   style="fill:none;stroke:#ff0303;stroke-width:4.99999"
   d="m 13813.271,14522.723 a 1500,1500 0 0 1 -1500,1500 1500,1500 0 0 1 -1500,-1499.999 1500,1500 0 0 1 1500,-1500.001 1500,1500 0 0 1 1500,1500 z"
   id="path1027" /><path
   style="fill:none;stroke:#ff0303;stroke-width:4.99999"
   d="m 7983.4997,7123.4514 1310.8712,477.118 -477.1181,1310.872 -1310.8712,-477.118 z"
   id="path1025" /><path
   style="fill:none;stroke:#ff0303;stroke-width:4.99999"
   d="m 9956.8542,7841.6944 1310.8708,477.118 -477.118,1310.8667 -1310.8709,-477.115 z"
   id="path1023" /><path
   style="fill:none;stroke:#ff0303;stroke-width:4.99999"
   d="m 10675.097,5868.3391 1310.871,477.1181 -477.118,1310.8712 -1310.871,-477.118 z"
   id="path1021" /><path
   style="fill:none;stroke:#ff0303;stroke-width:4.99999"
   d="m 11930.209,8559.9364 1310.871,477.1173 -477.118,1310.8653 -1310.871,-477.1171 z"
   id="path1019" /><path
   style="fill:none;stroke:#ff0303;stroke-width:4.99999"
   d="m 9525.6585,8427.0144 a 147.50002,147.5 20 0 1 -189.0526,88.157 147.50002,147.5 20 0 1 -88.1567,-189.053 147.50002,147.5 20 0 1 189.0526,-88.156 147.50002,147.5 20 0 1 88.1567,189.052 z"
   id="path1017" /><path
   style="fill:none;stroke:#ff0303;stroke-width:4.99999"
   d="m 11499.013,9145.2561 a 147.50002,147.5 20 0 1 -189.053,88.1554 147.50002,147.5 20 0 1 -88.156,-189.0508 147.50002,147.5 20 0 1 189.052,-88.1567 147.50002,147.5 20 0 1 88.157,189.0521 z"
   id="path1085-4-0" /></g>
</svg>
