<?xml version="1.0" encoding="UTF-8" standalone="no"?>
<!-- Creator: CorelDRAW 2021.5 -->

<svg
   xml:space="preserve"
   width="350mm"
   height="250mm"
   version="1.1"
   style="clip-rule:evenodd;fill-rule:evenodd;image-rendering:optimizeQuality;shape-rendering:geometricPrecision;text-rendering:geometricPrecision"
   viewBox="0 0 35000 25000"
   id="svg46"
   sodipodi:docname="led_layer.svg"
   inkscape:version="1.2.1 (9c6d41e410, 2022-07-14)"
   inkscape:export-filename="upper.svg"
   inkscape:export-xdpi="96"
   inkscape:export-ydpi="96"
   xmlns:inkscape="http://www.inkscape.org/namespaces/inkscape"
   xmlns:sodipodi="http://sodipodi.sourceforge.net/DTD/sodipodi-0.dtd"
   xmlns="http://www.w3.org/2000/svg"
   xmlns:svg="http://www.w3.org/2000/svg"><sodipodi:namedview
   id="namedview48"
   pagecolor="#ffffff"
   bordercolor="#000000"
   borderopacity="1"
   inkscape:showpageshadow="false"
   inkscape:pageopacity="1"
   inkscape:pagecheckerboard="1"
   inkscape:deskcolor="#454545"
   inkscape:document-units="mm"
   showgrid="false"
   inkscape:zoom="0.75459098"
   inkscape:cx="524.125"
   inkscape:cy="482.38053"
   inkscape:window-width="1920"
   inkscape:window-height="1017"
   inkscape:window-x="1912"
   inkscape:window-y="-8"
   inkscape:window-maximized="1"
   inkscape:current-layer="Layer_x0020_1" />
 <defs
   id="defs4">
  <style
   type="text/css"
   id="style2">
   <![CDATA[
    .str0 {stroke:red;stroke-width:7.62;stroke-miterlimit:22.9256}
    .fil0 {fill:none}
   ]]>
  </style>
 </defs>
 <g
   id="Layer_x0020_1"
   inkscape:label="Layer 1"
   inkscape:groupmode="layer">
  <metadata
   id="CorelCorpID_0Corel-Layer" />
  <rect
   class="fil0 str0"
   x="1445.973"
   y="886.33575"
   width="31998.754"
   height="20998.756"
   id="rect7"
   rx="250"
   ry="250" />
  <circle
   class="fil0 str0"
   cx="3145.71"
   cy="2586.1101"
   r="200"
   id="circle9" />
  <circle
   class="fil0 str0"
   cx="31745.01"
   cy="2586.1101"
   r="200"
   id="circle11" />
  <circle
   class="fil0 str0"
   cx="3145.71"
   cy="20185.311"
   r="200"
   id="circle13" />
  <circle
   class="fil0 str0"
   cx="31745.01"
   cy="20185.311"
   r="200"
   id="circle15" />
  <circle
   class="fil0 str0"
   cx="17129.104"
   cy="7389.5049"
   r="1500"
   id="circle17" />
  <circle
   class="fil0 str0"
   cx="20429.104"
   cy="6089.5049"
   r="1500"
   id="circle19" />
  <circle
   class="fil0 str0"
   cx="23929.104"
   cy="6089.5049"
   r="1500"
   id="circle21" />
  
  
  
  
  
  
  <path
   id="circle35"
   class="fil0 str0"
   d="M 27429.096,4589.5207 A 1500,1500 0 0 0 25929.085,6089.4808 1500,1500 0 0 0 27429.096,7589.4926 1500,1500 0 0 0 28929.108,6089.4808 1500,1500 0 0 0 27429.096,4589.5207 Z" />
  <circle
   class="fil0 str0"
   cx="16629.104"
   cy="11089.504"
   r="1500"
   id="circle37" /><circle
   class="fil0 str0"
   cx="17129.109"
   cy="14753.811"
   r="1500"
   id="circle37-5"
   style="clip-rule:evenodd;fill:none;fill-rule:evenodd;stroke:#ff0000;stroke-width:7.62;stroke-miterlimit:22.9256;image-rendering:optimizeQuality;shape-rendering:geometricPrecision;text-rendering:geometricPrecision" />
  <circle
   class="fil0 str0"
   cx="19929.104"
   cy="9789.5039"
   r="1500"
   id="circle39" />
  <circle
   class="fil0 str0"
   cx="23429.104"
   cy="9789.5039"
   r="1500"
   id="circle41" />
  <circle
   class="fil0 str0"
   cx="26929.104"
   cy="9789.5039"
   r="1500"
   id="circle43" />
 <circle
   class="fil0 str0"
   cx="17445.35"
   cy="2586.1101"
   r="200"
   id="circle9-7"
   style="clip-rule:evenodd;fill:none;fill-rule:evenodd;stroke:#ff0000;stroke-width:7.62;stroke-miterlimit:22.9256;image-rendering:optimizeQuality;shape-rendering:geometricPrecision;text-rendering:geometricPrecision" /><circle
   class="fil0 str0"
   cx="17445.35"
   cy="20185.311"
   r="200"
   id="circle9-7-9"
   style="clip-rule:evenodd;fill:none;fill-rule:evenodd;stroke:#ff0000;stroke-width:7.62;stroke-miterlimit:22.9256;image-rendering:optimizeQuality;shape-rendering:geometricPrecision;text-rendering:geometricPrecision" /><rect
   style="fill:none;stroke:#ff0303;stroke-width:5;stroke-dasharray:none"
   id="rect111"
   width="1395"
   height="1395"
   x="9202.3877"
   y="4053.0588"
   transform="rotate(20)" /><rect
   style="fill:none;stroke:#ff0303;stroke-width:5;stroke-dasharray:none"
   id="rect111-1"
   width="1395"
   height="1395"
   x="11302.388"
   y="4053.0588"
   transform="rotate(20)" /><rect
   style="fill:none;stroke:#ff0303;stroke-width:5;stroke-dasharray:none"
   id="rect111-1-7"
   width="1395"
   height="1395"
   x="11302.388"
   y="1953.0583"
   transform="rotate(20)" /><rect
   style="fill:none;stroke:#ff0303;stroke-width:5;stroke-dasharray:none"
   id="rect111-1-4"
   width="1395"
   height="1395"
   x="13402.388"
   y="4053.0588"
   transform="rotate(20)" /><ellipse
   style="fill:none;stroke:#ff0303;stroke-width:4.99999;stroke-dasharray:none"
   id="path1085"
   cx="10949.888"
   cy="4750.5591"
   rx="147.50002"
   ry="147.5"
   transform="rotate(20)" /><ellipse
   style="fill:none;stroke:#ff0303;stroke-width:4.99999;stroke-dasharray:none"
   id="path1085-4"
   cx="13049.888"
   cy="4750.5591"
   rx="147.50002"
   ry="147.5"
   transform="rotate(20)" /><path
   id="rect7-04"
   style="clip-rule:evenodd;fill:none;fill-rule:evenodd;stroke:#ff0000;stroke-width:7.62;stroke-miterlimit:22.9256;image-rendering:optimizeQuality;shape-rendering:geometricPrecision;text-rendering:geometricPrecision"
   class="fil0 str0"
   d="m 2656.1754,1936.6784 c -138.4996,0 -250.0106,111.4593 -250.0106,249.9589 V 20584.79 c 0,138.5 111.511,249.959 250.0106,249.959 h 1992.0227 v -986.968 h 995.03 v 986.968 H 29247.524 v -986.968 h 994.978 v 986.968 h 1992.023 c 138.5,0 250.01,-111.459 250.01,-249.959 V 2186.6373 c 0,-138.4996 -111.51,-249.9589 -250.01,-249.9589 h -1992.023 v 986.9165 h -994.978 V 1936.6784 H 5643.2281 v 986.9165 h -995.03 v -986.9165 z" /><circle
   class="fil0 str0"
   cx="5145.7461"
   cy="2586.1423"
   id="circle9-9"
   style="clip-rule:evenodd;fill:none;fill-rule:evenodd;stroke:#ff0000;stroke-width:7.62;stroke-miterlimit:22.9256;image-rendering:optimizeQuality;shape-rendering:geometricPrecision;text-rendering:geometricPrecision"
   r="146.19" /><circle
   class="fil0 str0"
   cx="5145.7461"
   cy="20185.342"
   id="circle9-9-2"
   style="clip-rule:evenodd;fill:none;fill-rule:evenodd;stroke:#ff0000;stroke-width:7.62;stroke-miterlimit:22.9256;image-rendering:optimizeQuality;shape-rendering:geometricPrecision;text-rendering:geometricPrecision"
   r="146.19" /><circle
   class="fil0 str0"
   cx="29745.047"
   cy="20185.342"
   id="circle9-9-5"
   style="clip-rule:evenodd;fill:none;fill-rule:evenodd;stroke:#ff0000;stroke-width:7.62;stroke-miterlimit:22.9256;image-rendering:optimizeQuality;shape-rendering:geometricPrecision;text-rendering:geometricPrecision"
   r="146.19" /><circle
   class="fil0 str0"
   cx="29745.047"
   cy="2586.1423"
   id="circle9-9-7"
   style="clip-rule:evenodd;fill:none;fill-rule:evenodd;stroke:#ff0000;stroke-width:7.62;stroke-miterlimit:22.9256;image-rendering:optimizeQuality;shape-rendering:geometricPrecision;text-rendering:geometricPrecision"
   r="146.19" /><path
   id="rect7-0-0-8"
   style="clip-rule:evenodd;fill:none;fill-rule:evenodd;stroke:#ff0000;stroke-width:7.6;stroke-miterlimit:22.9256;stroke-dasharray:none;image-rendering:optimizeQuality;shape-rendering:geometricPrecision;text-rendering:geometricPrecision"
   d="m 6296.7086,21191.55 v 395.221 h 7997.5994 v -395.221 z m 14299.6494,0 v 395.221 h 7997.6 V 21191.55 Z M 6296.7087,1184.6566 v 395.2214 h 7997.5993 v -395.2214 z m 14299.6493,0 v 395.2214 h 7997.6 V 1184.6566 Z M 1745.2838,5857.5548 h 396.732 v 3992.4 h -396.732 z m 0,7063.8602 h 396.732 v 3992.401 h -396.732 z M 32748.684,5857.5548 h 396.732 v 3992.4 h -396.732 z m 0,7063.8602 h 396.732 v 3992.401 h -396.732 z" /></g>
</svg>
