<?xml version="1.0" encoding="UTF-8" standalone="no"?>
<!-- Creator: CorelDRAW 2021.5 -->

<svg
   xml:space="preserve"
   width="400mm"
   height="300mm"
   version="1.1"
   style="clip-rule:evenodd;fill-rule:evenodd;image-rendering:optimizeQuality;shape-rendering:geometricPrecision;text-rendering:geometricPrecision"
   viewBox="0 0 40000 30000"
   id="svg46"
   sodipodi:docname="plexi_4cm.svg"
   inkscape:version="1.2.1 (9c6d41e410, 2022-07-14)"
   xmlns:inkscape="http://www.inkscape.org/namespaces/inkscape"
   xmlns:sodipodi="http://sodipodi.sourceforge.net/DTD/sodipodi-0.dtd"
   xmlns="http://www.w3.org/2000/svg"
   xmlns:svg="http://www.w3.org/2000/svg"><sodipodi:namedview
   id="namedview352"
   pagecolor="#ffffff"
   bordercolor="#ffffff"
   borderopacity="1"
   inkscape:showpageshadow="0"
   inkscape:pageopacity="1"
   inkscape:pagecheckerboard="1"
   inkscape:deskcolor="#505050"
   inkscape:document-units="mm"
   showgrid="false"
   showguides="false"
   inkscape:zoom="0.62637285"
   inkscape:cx="672.92189"
   inkscape:cy="574.73755"
   inkscape:window-width="1536"
   inkscape:window-height="801"
   inkscape:window-x="-8"
   inkscape:window-y="-8"
   inkscape:window-maximized="1"
   inkscape:current-layer="Layer_x0020_1"><sodipodi:guide
     position="1680.1075,4619.1751"
     orientation="1,0"
     id="guide1635"
     inkscape:locked="false" /><sodipodi:guide
     position="31888.974,6640.9761"
     orientation="1,0"
     id="guide1637"
     inkscape:locked="false" /><sodipodi:guide
     position="9166.199,14001.393"
     orientation="0,-1"
     id="guide1763"
     inkscape:locked="false" /><sodipodi:guide
     position="29399.422,-5207.4972"
     orientation="0,-1"
     id="guide1765"
     inkscape:locked="false" /></sodipodi:namedview>
 <defs
   id="defs4"><style
     type="text/css"
     id="style2">
   <![CDATA[
    .str0 {stroke:red;stroke-width:7.62;stroke-miterlimit:22.9256}
    .fil0 {fill:none}
   ]]>
  </style></defs>
 <g
   id="Layer_x0020_1"
   inkscape:label="Layer 1"
   inkscape:groupmode="layer"
   style="display:inline">
  <metadata
   id="CorelCorpID_0Corel-Layer" />
  
  
  
  
  
  
  
  
  
  
  
  
  
  
  
  
  
  
  
 <path
   id="rect7"
   style="clip-rule:evenodd;fill:none;fill-rule:evenodd;stroke:#ff0000;stroke-width:7.48039;stroke-miterlimit:22.9256;stroke-dasharray:none;image-rendering:optimizeQuality;shape-rendering:geometricPrecision;text-rendering:geometricPrecision"
   class="fil0 str0"
   d="M 2824.8401,7432.5903 H 34827.257 V 3440.0709 H 2824.8401 Z"
   sodipodi:nodetypes="ccccc" /><path
   id="rect7-0-8-9-1-1-5"
   style="clip-rule:evenodd;fill:none;fill-rule:evenodd;stroke:#ff0000;stroke-width:7.90762;stroke-miterlimit:22.9256;stroke-dasharray:none;image-rendering:optimizeQuality;shape-rendering:geometricPrecision;text-rendering:geometricPrecision"
   class="fil0 str0"
   d="M 23814.646,15031.653 H 3422.5537 v 3992.092 H 23814.646 Z"
   sodipodi:nodetypes="ccccc" /><path
   id="path2053"
   style="fill:none;stroke:#ff1111;stroke-width:7.6;stroke-miterlimit:22.93;stroke-dasharray:none"
   d="m 17876.005,9630.1881 a 169.77109,169.77109 0 0 0 -169.757,169.808 169.77109,169.77109 0 0 0 169.757,169.756 169.77109,169.77109 0 0 0 169.757,-169.756 169.77109,169.77109 0 0 0 -169.757,-169.808 z m 950.019,171.72 a 1198.1029,1198.1029 0 0 0 -1198.066,1198.0659 1198.1029,1198.1029 0 0 0 1198.066,1198.119 1198.1029,1198.1029 0 0 0 1198.118,-1198.119 1198.1029,1198.1029 0 0 0 -1198.118,-1198.0659 z m 950.02,2228.3399 a 169.77109,169.77109 0 0 0 -169.757,169.757 169.77109,169.77109 0 0 0 169.757,169.807 169.77109,169.77109 0 0 0 169.757,-169.808 169.77109,169.77109 0 0 0 -169.757,-169.756 z" /><path
   id="path3581-4"
   style="clip-rule:evenodd;fill:none;fill-rule:evenodd;stroke:#ff1111;stroke-width:7.6;stroke-miterlimit:22.93;stroke-dasharray:none;image-rendering:optimizeQuality;shape-rendering:geometricPrecision;text-rendering:geometricPrecision"
   d="m 16966.767,17027.699 a 1196.5757,1196.5758 0 0 0 -1196.566,-1196.568 1196.5757,1196.5758 0 0 0 -1196.568,1196.568 1196.5757,1196.5758 0 0 0 1196.568,1196.568 1196.5757,1196.5758 0 0 0 1196.566,-1196.568 z m -4303.148,0 a 1196.5757,1196.5758 0 0 0 -1196.567,-1196.568 1196.5757,1196.5758 0 0 0 -1196.62,1196.568 1196.5757,1196.5758 0 0 0 1196.62,1196.568 1196.5757,1196.5758 0 0 0 1196.567,-1196.568 z" /><path
   id="path559"
   style="fill:none;stroke:#ff1111;stroke-width:7.6;stroke-miterlimit:22.93;stroke-dasharray:none"
   d="m 6472.7462,5288.4844 a 147.84245,147.84244 0 0 0 -147.8462,147.8462 147.84245,147.84244 0 0 0 147.8462,147.8462 147.84245,147.84244 0 0 0 147.8463,-147.8462 147.84245,147.84244 0 0 0 -147.8463,-147.8462 z m 24706.6048,0 a 147.84245,147.84244 0 0 0 -147.846,147.8462 147.84245,147.84244 0 0 0 147.846,147.8462 147.84245,147.84244 0 0 0 147.846,-147.8462 147.84245,147.84244 0 0 0 -147.846,-147.8462 z" /><path
   id="rect7-3"
   style="clip-rule:evenodd;display:inline;fill:none;fill-rule:evenodd;stroke:#ff0000;stroke-width:7.48039;stroke-miterlimit:22.9256;stroke-dasharray:none;image-rendering:optimizeQuality;shape-rendering:geometricPrecision;text-rendering:geometricPrecision"
   class="fil0 str0"
   d="M 2824.8401,12996.26 H 34827.259 V 9003.7399 H 2824.8401 Z"
   sodipodi:nodetypes="ccccc" /><path
   id="path559-5"
   style="clip-rule:evenodd;display:inline;fill:none;fill-rule:evenodd;stroke:#ff1111;stroke-width:7.6;stroke-miterlimit:22.93;stroke-dasharray:none;image-rendering:optimizeQuality;shape-rendering:geometricPrecision;text-rendering:geometricPrecision"
   d="m 6472.7471,10852.153 a 147.84245,147.84244 0 0 0 -147.8462,147.847 147.84245,147.84244 0 0 0 147.8462,147.846 147.84245,147.84244 0 0 0 147.8463,-147.846 147.84245,147.84244 0 0 0 -147.8463,-147.847 z m 24706.6049,0 a 147.84245,147.84244 0 0 0 -147.846,147.847 147.84245,147.84244 0 0 0 147.846,147.846 147.84245,147.84244 0 0 0 147.846,-147.846 147.84245,147.84244 0 0 0 -147.846,-147.847 z" /><path
   id="path1242"
   style="fill:none;stroke:#ff1111;stroke-width:7.6;stroke-miterlimit:22.93;stroke-dasharray:none"
   d="m 6765.8147,16880.808 a 146.88544,146.88544 0 0 0 -146.9161,146.865 146.88544,146.88544 0 0 0 146.9161,146.916 146.88544,146.88544 0 0 0 146.8645,-146.916 146.88544,146.88544 0 0 0 -146.8645,-146.865 z m 13705.5693,0 a 146.88544,146.88544 0 0 0 -146.864,146.865 146.88544,146.88544 0 0 0 146.864,146.916 146.88544,146.88544 0 0 0 146.917,-146.916 146.88544,146.88544 0 0 0 -146.917,-146.865 z" /></g>
</svg>
