<?xml version="1.0" standalone="no"?>
<!DOCTYPE svg PUBLIC "-//W3C//DTD SVG 20010904//EN"
 "http://www.w3.org/TR/2001/REC-SVG-20010904/DTD/svg10.dtd">
<svg version="1.0" xmlns="http://www.w3.org/2000/svg"
 width="300.000000pt" height="300.000000pt" viewBox="0 0 300.000000 300.000000"
 preserveAspectRatio="xMidYMid meet">
<metadata>
Created by potrace 1.10, written by Peter Selinger 2001-2011
</metadata>
<g transform="translate(0.000000,300.000000) scale(0.050000,-0.050000)"
fill="#000000" stroke="none">
<path d="M4985 4294 l-305 -62 0 -626 c0 -508 5 -626 27 -626 14 0 77 10 140
23 l113 23 0 223 0 223 155 26 c451 75 689 415 503 720 -91 150 -202 163 -633
76z m342 -235 c121 -95 31 -255 -168 -297 -59 -13 -129 -29 -154 -35 -46 -12
-47 -10 -41 155 l6 167 120 23 c172 33 179 32 237 -13z"/>
<path d="M4250 4150 c-121 -25 -330 -66 -465 -90 -282 -52 -277 -48 -144 -147
l100 -75 192 42 c238 51 235 57 78 -128 -72 -84 -140 -171 -151 -192 -19 -36
-45 -20 -312 192 -242 193 -298 230 -339 220 l-49 -13 0 -627 0 -627 95 18
c52 10 117 23 143 29 l48 10 -12 331 c-12 306 -10 329 20 304 18 -15 114 -96
213 -180 l180 -154 198 249 c109 136 204 248 210 248 5 0 4 -148 -4 -330 -16
-372 -30 -345 156 -307 l113 23 0 627 c0 489 -5 627 -25 625 -14 -1 -124 -23
-245 -48z"/>
<path d="M2483 3880 c-10 -28 -133 -314 -272 -638 -139 -323 -250 -589 -247
-591 3 -2 38 -28 78 -58 144 -107 153 -99 318 318 169 427 160 414 216 298
l43 -88 -50 -13 c-47 -12 -167 -197 -143 -221 5 -4 109 13 232 40 231 50 301
42 162 -19 -44 -20 -80 -43 -80 -51 0 -47 92 -197 121 -197 43 0 244 38 254
48 7 8 -272 572 -492 992 -111 212 -122 225 -140 180z"/>
<path d="M1530 3679 c-44 -7 -285 -55 -535 -106 -250 -51 -459 -93 -465 -93
-5 0 -10 -22 -10 -49 0 -111 183 -164 348 -99 36 14 37 6 27 -119 -12 -152
-17 -148 165 -106 l109 26 1 117 0 116 130 27 c234 49 366 -6 333 -139 -28
-109 -68 -130 -409 -209 l-326 -75 -4 -325 c-3 -206 3 -325 16 -324 11 0 74
12 140 26 l120 25 -7 214 c-9 271 -7 272 295 41 l227 -173 163 25 c238 38 239
34 -17 222 -248 182 -254 189 -186 206 147 38 279 240 280 431 3 236 -162 379
-395 341z"/>
<path d="M5280 3262 l-250 -54 -6 -84 c-4 -46 2 -84 12 -84 65 0 591 121 616
142 16 13 27 48 24 76 -8 71 -80 72 -396 4z"/>
<path d="M435 3159 c-315 -66 -355 -82 -355 -147 0 -91 32 -93 371 -26 l319
64 6 85 c8 102 29 101 -341 24z"/>
<path d="M544 2890 c-214 -47 -290 -90 -280 -157 12 -76 59 -83 289 -41 l217
40 6 104 c3 57 -1 103 -10 101 -9 -1 -109 -22 -222 -47z"/>
<path d="M5300 2865 c-135 -121 -91 -267 87 -294 59 -8 93 -24 93 -41 0 -36
-67 -56 -136 -41 -77 17 -164 -68 -113 -109 130 -109 389 2 389 167 0 77 -72
153 -144 153 -55 0 -119 38 -105 62 7 12 43 18 80 15 111 -10 202 104 104 130
-105 28 -194 14 -255 -42z"/>
<path d="M5150 2870 c-11 -3 -43 -11 -71 -18 -32 -7 -87 -59 -150 -142 l-99
-132 -6 111 c-5 93 -12 111 -43 111 -99 0 -101 -7 -101 -302 l0 -278 70 0 c69
0 70 1 71 85 1 159 47 182 142 70 82 -97 147 -119 216 -76 24 15 7 42 -85 138
-138 146 -139 121 6 285 139 156 147 181 50 148z"/>
<path d="M4281 2708 c-321 -139 -280 -571 50 -544 180 15 313 148 200 199 -40
18 -57 15 -102 -20 -64 -51 -124 -55 -185 -12 -127 89 40 301 194 245 46 -16
142 41 142 85 0 62 -195 92 -299 47z"/>
<path d="M3875 2646 c-31 -8 -35 -39 -35 -295 l0 -286 65 13 65 14 6 284 c6
307 9 299 -101 270z"/>
<path d="M3515 2583 l-155 -30 0 -69 c0 -66 3 -68 60 -57 l60 12 0 -217 0
-217 65 13 65 14 6 213 5 214 65 17 c53 13 65 27 70 80 8 75 3 75 -241 27z"/>
<path d="M3026 2481 c-123 -75 -123 -265 -1 -289 25 -5 70 -15 100 -21 61 -13
75 -64 20 -76 -19 -4 -57 0 -83 9 -51 18 -142 -43 -142 -96 0 -58 188 -86 276
-40 187 97 171 331 -23 332 -35 0 -75 8 -91 18 -45 29 -5 62 76 62 115 0 193
102 97 127 -83 23 -164 13 -229 -26z"/>
<path d="M636 2457 c-97 -35 -89 -177 10 -177 111 1 134 20 134 112 0 97 -26
108 -144 65z"/>
<path d="M2730 2439 c-44 -9 -114 -22 -155 -28 -70 -12 -75 -17 -75 -83 0 -69
0 -70 73 -56 l72 13 -13 -199 c-14 -223 -15 -222 68 -210 l60 9 0 216 0 216
65 7 c57 5 66 14 71 71 7 72 -8 77 -166 44z"/>
<path d="M2315 2366 c-27 -7 -35 -30 -35 -108 0 -104 -2 -106 -115 -126 l-65
-11 0 100 c0 103 -8 110 -95 86 -44 -11 -45 -19 -45 -279 l0 -268 70 0 70 0 0
120 c0 119 0 120 58 120 32 0 73 5 90 12 27 10 32 -5 32 -90 l0 -102 70 0 70
0 0 280 c0 301 3 294 -105 266z"/>
<path d="M1491 2214 c-239 -135 -231 -473 11 -521 177 -36 378 133 378 317 0
107 -306 62 -316 -47 l-7 -64 82 13 c99 16 109 -17 19 -63 -77 -40 -147 -25
-189 40 -65 99 73 256 195 224 42 -11 136 50 136 87 0 65 -204 74 -309 14z"/>
<path d="M1125 2159 c-44 -17 -45 -26 -45 -291 l0 -273 45 12 c25 7 56 13 70
13 19 0 25 69 25 280 0 296 0 297 -95 259z"/>
<path d="M860 2120 c-38 -8 -104 -21 -145 -29 l-75 -13 0 -276 0 -277 65 13
c62 13 65 18 67 113 l1 99 94 17 c90 17 93 20 93 87 0 77 13 74 -152 33 -46
-11 -51 -7 -45 35 6 42 22 50 122 65 114 17 115 18 115 85 0 74 -10 77 -140
48z"/>
</g>
</svg>
