<?xml version="1.0" encoding="UTF-8" standalone="no"?>
<!-- Creator: CorelDRAW 2021.5 -->

<svg
   xml:space="preserve"
   width="350mm"
   height="250mm"
   version="1.1"
   style="clip-rule:evenodd;fill-rule:evenodd;image-rendering:optimizeQuality;shape-rendering:geometricPrecision;text-rendering:geometricPrecision"
   viewBox="0 0 35000 25000"
   id="svg46"
   sodipodi:docname="upper_cover.svg"
   inkscape:version="1.2.1 (9c6d41e410, 2022-07-14)"
   inkscape:export-filename="..\..\..\..\output\cover2.svg"
   inkscape:export-xdpi="96"
   inkscape:export-ydpi="96"
   xmlns:inkscape="http://www.inkscape.org/namespaces/inkscape"
   xmlns:sodipodi="http://sodipodi.sourceforge.net/DTD/sodipodi-0.dtd"
   xmlns="http://www.w3.org/2000/svg"
   xmlns:svg="http://www.w3.org/2000/svg"><sodipodi:namedview
   id="namedview48"
   pagecolor="#ffffff"
   bordercolor="#000000"
   borderopacity="1"
   inkscape:showpageshadow="false"
   inkscape:pageopacity="1"
   inkscape:pagecheckerboard="1"
   inkscape:deskcolor="#454545"
   inkscape:document-units="mm"
   showgrid="false"
   inkscape:zoom="0.75459098"
   inkscape:cx="642.06969"
   inkscape:cy="440.63606"
   inkscape:window-width="1920"
   inkscape:window-height="1001"
   inkscape:window-x="-9"
   inkscape:window-y="-9"
   inkscape:window-maximized="1"
   inkscape:current-layer="Layer_x0020_1"
   showguides="false" />
 <defs
   id="defs4">
  <style
   type="text/css"
   id="style2">
   <![CDATA[
    .str0 {stroke:red;stroke-width:7.62;stroke-miterlimit:22.9256}
    .fil0 {fill:none}
   ]]>
  </style>
 </defs>
 <g
   id="Layer_x0020_1"
   inkscape:label="Layer 1"
   inkscape:groupmode="layer">
  <metadata
   id="CorelCorpID_0Corel-Layer" />
  <path
   style="color:#000000;fill:none;stroke:#ff0000;stroke-width:10.00000026;stroke-dasharray:none"
   d="m 19996.887,10148.615 -91.914,39.393 1485.638,3466.494 h 12831.02 v -100 H 21456.553 Z"
   id="path2511" /><path
   style="color:#000000;fill:none;stroke:#ff0000;stroke-width:10.00000026;stroke-dasharray:none"
   d="m 22830.961,8948.8926 -91.916,39.3926 1485.641,3466.4918 h 10014.476 v -100 h -9948.537 z"
   id="path2511-9" /><path
   style="color:#000000;fill:none;stroke:#ff0000;stroke-width:10.00000026;stroke-dasharray:none"
   d="m 12575.775,333.45898 -910.072,2488.60552 -161.5,441.621 -795.89,2176.3711 93.917,34.3438 795.889,-2176.3691 161.5,-441.6231 910.072,-2488.60351 z M 4938.5898,6879.7187 3576.3223,10604.857 l -211.9785,579.659 -1017.459,2782.252 -1425.59378,3898.308 93.91598,34.344 1425.5957,-3898.307 1017.4571,-2782.252 211.9785,-579.66 1327.9219,-3631.2205 659.6621,241.2363 520.457,190.3281 410.0312,149.9473 34.3457,-93.918 -410.0312,-149.9453 -520.457,-190.3301 z m 4247.3848,2723.1954 -589.5078,1612.0159 1239.8555,453.41 578.1567,211.43 1094.244,400.16 -3675.0472,10049.468 93.916,34.344 3709.3922,-10143.385 -1188.16,-434.505 -578.158,-211.43 -1145.9375,-419.065 555.1621,-1518.0992 z m 3477.4944,101.7617 -34.344,93.916 4038.164,1476.7402 34.344,-93.918 z"
   id="path1277" /><path
   style="color:#000000;fill:none;stroke:#ff0000;stroke-width:10.00000026;stroke-dasharray:none"
   d="m 27349.85,6050.9902 -1.19,99.9942 2895.309,34.4668 -43.112,3621.1836 -3237.125,-38.5371 -1.189,99.9921 3337.117,39.7286 22.639,-1901.5254 3827.267,45.5976 1.192,-99.9922 -3827.27,-45.5976 21.664,-1819.6504 z"
   id="path2429" /><path
   style="color:#000000;fill:none;stroke:#ff0000;stroke-width:10.00000026;stroke-dasharray:none"
   d="m 17137.004,14828.186 -2673.705,7336.384 93.955,34.242 2673.705,-7336.386 z"
   id="path2471" /><path
   style="color:#000000;fill:none;stroke:#ff0000;stroke-width:10.00000026;stroke-dasharray:none"
   d="m 26046.471,874.24219 -2249.479,5242.09181 91.897,39.4336 2249.478,-5242.09182 z"
   id="path2278" /><path
   style="color:#000000;fill:none;stroke:#ff0000;stroke-width:10.00000026;stroke-dasharray:none"
   d="m 16955.627,5314.6621 v 2188.8516 h 100 V 5414.6621 h 3386.187 v -100 z"
   id="path2432" /><path
   style="color:#000000;fill:none;stroke:#ff0000;stroke-width:10.00000026;stroke-dasharray:none"
   d="m 3868.8027,458.13477 -795.1855,2128.65233 93.6777,34.9942 795.1856,-2128.65239 z"
   id="path1394" /><rect
   class="fil0 str0"
   x="1695.973"
   y="1136.3358"
   width="31498.781"
   height="20498.781"
   id="rect7-3"
   rx="500"
   ry="500"
   style="clip-rule:evenodd;fill:none;fill-rule:evenodd;stroke:#ff0000;stroke-width:7.6;stroke-miterlimit:22.9256;image-rendering:optimizeQuality;shape-rendering:geometricPrecision;text-rendering:geometricPrecision;stroke-dasharray:none" />
  <circle
   class="fil0 str0"
   cx="3145.71"
   cy="2586.1101"
   r="200"
   id="circle9" />
  <circle
   class="fil0 str0"
   cx="31745.01"
   cy="2586.1101"
   r="200"
   id="circle11" />
  <circle
   class="fil0 str0"
   cx="3145.71"
   cy="20185.311"
   r="200"
   id="circle13" />
  <circle
   class="fil0 str0"
   cx="31745.01"
   cy="20185.311"
   r="200"
   id="circle15"
   style="fill:none;stroke:#ff0000;stroke-opacity:1" />
  <circle
   class="fil0 str0"
   cx="17129.104"
   cy="7389.5049"
   r="1500"
   id="circle17"
   style="fill:#ffffff" />
  <circle
   class="fil0 str0"
   cx="20429.104"
   cy="6089.5049"
   r="1500"
   id="circle19"
   style="fill:#ffffff" />
  <circle
   class="fil0 str0"
   cx="23929.104"
   cy="6089.5049"
   r="1500"
   id="circle21"
   style="fill:#ffffff" />
  
  
  
  
  
  
  <path
   id="circle35"
   class="fil0 str0"
   d="M 27429.096,4589.5207 A 1500,1500 0 0 0 25929.085,6089.4808 1500,1500 0 0 0 27429.096,7589.4926 1500,1500 0 0 0 28929.108,6089.4808 1500,1500 0 0 0 27429.096,4589.5207 Z"
   style="fill:#ffffff" />
  <circle
   class="fil0 str0"
   cx="16629.104"
   cy="11089.504"
   r="1500"
   id="circle37"
   style="fill:#ffffff" /><circle
   class="fil0 str0"
   cx="17129.109"
   cy="14753.811"
   r="1500"
   id="circle37-5"
   style="clip-rule:evenodd;fill:#ffffff;fill-rule:evenodd;stroke:#ff0000;stroke-width:7.62;stroke-miterlimit:22.9256;image-rendering:optimizeQuality;shape-rendering:geometricPrecision;text-rendering:geometricPrecision" />
  <circle
   class="fil0 str0"
   cx="19929.104"
   cy="9789.5039"
   r="1500"
   id="circle39"
   style="fill:#ffffff" />
  <circle
   class="fil0 str0"
   cx="23429.104"
   cy="9789.5039"
   r="1500"
   id="circle41"
   style="fill:#ffffff" />
  <circle
   class="fil0 str0"
   cx="26929.104"
   cy="9789.5039"
   r="1500"
   id="circle43"
   style="fill:#ffffff" />
 <circle
   class="fil0 str0"
   cx="17445.35"
   cy="2586.1101"
   r="200"
   id="circle9-7"
   style="clip-rule:evenodd;fill:none;fill-rule:evenodd;stroke:#ff0000;stroke-width:7.62;stroke-miterlimit:22.9256;image-rendering:optimizeQuality;shape-rendering:geometricPrecision;text-rendering:geometricPrecision" /><circle
   class="fil0 str0"
   cx="17445.35"
   cy="20185.311"
   r="200"
   id="circle9-7-9"
   style="clip-rule:evenodd;fill:none;fill-rule:evenodd;stroke:#ff0000;stroke-width:7.62;stroke-miterlimit:22.9256;image-rendering:optimizeQuality;shape-rendering:geometricPrecision;text-rendering:geometricPrecision" /><path
   id="rect1308"
   style="display:inline;fill:#ffffff;stroke:#ff0303;stroke-width:4.99998;stroke-dasharray:none"
   d="m 9803.3423,5380.5044 -718.2337,1973.3306 -1973.3312,-718.233 -648.1371,1780.742 2077.0553,755.986 4.9531,1.803 1864.7023,678.696 4.71,1.714 1775.984,646.405 648.137,-1780.742 -1775.984,-646.405 -4.71,-1.714 -192.637,-70.114 718.233,-1973.3306 z" /><text
   xml:space="preserve"
   style="font-size:4233.33px;line-height:1;font-family:'Gill Sans MT Condensed';-inkscape-font-specification:'Gill Sans MT Condensed, ';clip-rule:evenodd;fill:#0000ff;fill-rule:evenodd;stroke:none;stroke-width:50;stroke-dasharray:none;stroke-opacity:1;image-rendering:optimizeQuality;shape-rendering:geometricPrecision;text-rendering:geometricPrecision"
   x="25701.287"
   y="19835.002"
   id="text985-7"><tspan
     sodipodi:role="line"
     style="font-size:4233.33px;text-align:center;text-anchor:middle;fill:#0000ff;stroke:none;stroke-width:50;stroke-dasharray:none;stroke-opacity:1"
     x="25701.287"
     y="19835.002"
     id="tspan1041-0">예민쯔</tspan></text><text
   xml:space="preserve"
   style="font-size:4233.33px;font-family:'Noto Serif KR';-inkscape-font-specification:'Noto Serif KR';text-align:center;text-anchor:middle;fill:none;stroke:#0003fc;stroke-width:7"
   x="6311.3662"
   y="10974.765"
   id="text392"><tspan
     sodipodi:role="line"
     id="tspan390"
     style="stroke-width:7" /></text><circle
   class="fil0 str0"
   cx="5145.7002"
   cy="2586.1001"
   id="circle9-9"
   style="clip-rule:evenodd;fill:none;fill-rule:evenodd;stroke:#ff0000;stroke-width:7.62;stroke-miterlimit:22.9256;image-rendering:optimizeQuality;shape-rendering:geometricPrecision;text-rendering:geometricPrecision"
   r="146.19" /><circle
   class="fil0 str0"
   cx="5145.7002"
   cy="20185.299"
   id="circle9-9-2"
   style="clip-rule:evenodd;fill:none;fill-rule:evenodd;stroke:#ff0000;stroke-width:7.62;stroke-miterlimit:22.9256;image-rendering:optimizeQuality;shape-rendering:geometricPrecision;text-rendering:geometricPrecision"
   r="146.19" /><circle
   class="fil0 str0"
   cx="29745.004"
   cy="20185.299"
   id="circle9-9-5"
   style="clip-rule:evenodd;fill:none;fill-rule:evenodd;stroke:#ff0000;stroke-width:7.62;stroke-miterlimit:22.9256;image-rendering:optimizeQuality;shape-rendering:geometricPrecision;text-rendering:geometricPrecision"
   r="146.19" /><circle
   class="fil0 str0"
   cx="29745.004"
   cy="2586.1001"
   id="circle9-9-7"
   style="clip-rule:evenodd;fill:none;fill-rule:evenodd;stroke:#ff0000;stroke-width:7.62;stroke-miterlimit:22.9256;image-rendering:optimizeQuality;shape-rendering:geometricPrecision;text-rendering:geometricPrecision"
   r="146.19" /></g>
</svg>
