<?xml version="1.0" encoding="UTF-8" standalone="no"?>
<!-- Creator: CorelDRAW 2021.5 -->

<svg
   xml:space="preserve"
   width="350mm"
   height="250mm"
   version="1.1"
   style="clip-rule:evenodd;fill-rule:evenodd;image-rendering:optimizeQuality;shape-rendering:geometricPrecision;text-rendering:geometricPrecision"
   viewBox="0 0 35000 25000"
   id="svg46"
   sodipodi:docname="upper_cover.svg"
   inkscape:version="1.2.1 (9c6d41e410, 2022-07-14)"
   inkscape:export-filename="..\..\..\..\cutt\cover2.svg"
   inkscape:export-xdpi="96"
   inkscape:export-ydpi="96"
   xmlns:inkscape="http://www.inkscape.org/namespaces/inkscape"
   xmlns:sodipodi="http://sodipodi.sourceforge.net/DTD/sodipodi-0.dtd"
   xmlns="http://www.w3.org/2000/svg"
   xmlns:svg="http://www.w3.org/2000/svg"><sodipodi:namedview
   id="namedview48"
   pagecolor="#ffffff"
   bordercolor="#000000"
   borderopacity="1"
   inkscape:showpageshadow="false"
   inkscape:pageopacity="1"
   inkscape:pagecheckerboard="1"
   inkscape:deskcolor="#454545"
   inkscape:document-units="mm"
   showgrid="false"
   inkscape:zoom="1.4142136"
   inkscape:cx="829.0827"
   inkscape:cy="704.63191"
   inkscape:window-width="1920"
   inkscape:window-height="1001"
   inkscape:window-x="-9"
   inkscape:window-y="-9"
   inkscape:window-maximized="1"
   inkscape:current-layer="text985-7"
   showguides="false" />
 <defs
   id="defs4">
  <style
   type="text/css"
   id="style2">
   <![CDATA[
    .str0 {stroke:red;stroke-width:7.62;stroke-miterlimit:22.9256}
    .fil0 {fill:none}
   ]]>
  </style>
 </defs>
 <g
   id="Layer_x0020_1"
   inkscape:label="Layer 1"
   inkscape:groupmode="layer">
  <metadata
   id="CorelCorpID_0Corel-Layer" />
  <path
   style="color:#000000;fill:none;stroke:#ff0000;stroke-width:10;stroke-dasharray:none"
   d="M 33292.429,13554.502 H 21456.553 l -1257.605,-2591.386 -91.914,39.393 1283.577,2651.993 h 11894.802 z"
   id="path2511"
   sodipodi:nodetypes="ccccccc" /><path
   style="color:#000000;fill:none;stroke:#ff0000;stroke-width:10;stroke-dasharray:none"
   d="m 30400,12354.777 h -6109.375 l -665.914,-1395.051 -91.916,39.393 691.891,1455.658 H 30400 Z m 300,100 h 732.5 1876.299 l 4.678,-100 H 31440.251 30700 Z"
   id="path2511-9"
   sodipodi:nodetypes="cccccccccccccc" /><path
   style="color:#000000;fill:none;stroke:#ff0000;stroke-width:10;stroke-dasharray:none"
   d="m 12313.585,1050.4223 -647.882,1771.6422 -161.5,441.621 -768.597,2092.2217 93.917,34.3438 768.596,-2092.2197 161.5,-441.6231 659.299,-1802.8615 z m -8025.1316,7949.5778 709.7068,-1992.0196 659.6621,241.2363 520.457,190.3281 240.2292,90.0045 34.3457,-93.918 -240.2292,-90.0025 -520.457,-190.3301 -753.5782,-275.5801 -757.1897,2120.2814 z m -212.1984,300 -499.9327,1304.8569 -211.9785,579.659 -960.9009,2615.484 -779.9136,2170.727 1.7386,260.474 116.9717,-319.86 765.6664,-2111.341 950.3538,-2581.139 211.9785,-579.66 505.6602,-1339.2009 z M 9081.7518,19200 l 2555.2322,-6979.643 -1188.16,-434.505 -578.158,-211.43 -1145.9375,-419.065 480.7819,-1363.1405 -93.916,-34.3437 -515.1276,1457.0572 1239.8555,453.41 578.1567,211.43 1094.244,400.16 L 8976.614,19200 Z m -202.2957,300 -826.237,2229.054 104.9946,4.049 L 8981.1984,19500 Z m 3935.5339,-9713.5532 -34.344,93.916 2696.018,998.0942 34.344,-93.918 z"
   id="path1277"
   sodipodi:nodetypes="ccccccccccccccccccccccccccccccccccccccccccccccccccccccc" /><path
   style="color:#000000;fill:none;stroke:#ff0000;stroke-width:10;stroke-dasharray:none"
   d="m 33311.069,7941.8944 -2987.581,-35.5936 21.664,-1819.6504 -1553.323,-9.2019 -1.19,99.9942 1453.33,8.0085 -43.112,3621.1836 -1914.208,1.1504 -1.189,99.9921 2014.2,0.041 22.639,-1901.5254 2978.879,35.49 z"
   id="path2429"
   sodipodi:nodetypes="ccccccccccccc" /><path
   style="color:#000000;fill:none;stroke:#ff0000;stroke-width:10;stroke-dasharray:none"
   d="m 14731.608,21720.402 1962.63,-5758.82 -93.955,-34.24 -1976.818,5797.749 z"
   id="path2471"
   sodipodi:nodetypes="ccccc" /><path
   style="color:#000000;fill:none;stroke:#ff0000;stroke-width:10;stroke-dasharray:none"
   d="m 26046.471,874.24219 -1763.048,4119.55981 91.897,39.4336 1763.047,-4119.55982 z"
   id="path2278"
   sodipodi:nodetypes="ccccc" /><path
   style="color:#000000;fill:none;stroke:#ff0000;stroke-width:10;stroke-dasharray:none"
   d="m 16955.627,5314.6621 4.677,706.1739 h 100 l -4.677,-606.1739 2399.294,4.6772 v -100 z"
   id="path2432"
   sodipodi:nodetypes="ccccccc" /><path
   style="color:#000000;fill:none;stroke:#ff0000;stroke-width:10;stroke-dasharray:none"
   d="m 3643.7146,1060.6789 -570.0974,1526.1082 93.6777,34.9942 581.8426,-1557.5493 z"
   id="path1394"
   sodipodi:nodetypes="ccccc" /><rect
   class="fil0 str0"
   x="1649.1625"
   y="1089.5262"
   width="31592.402"
   height="20592.4"
   id="rect7-3-6"
   rx="500.00003"
   ry="500.00003"
   style="clip-rule:evenodd;fill:none;fill-rule:evenodd;stroke:#ff0000;stroke-width:7.6;stroke-miterlimit:22.9256;stroke-dasharray:none;image-rendering:optimizeQuality;shape-rendering:geometricPrecision;text-rendering:geometricPrecision" />
  <circle
   class="fil0 str0"
   cx="3145.71"
   cy="2586.1101"
   r="200"
   id="circle9" />
  <circle
   class="fil0 str0"
   cx="31745.01"
   cy="2586.1101"
   r="200"
   id="circle11" />
  <circle
   class="fil0 str0"
   cx="3145.71"
   cy="20185.311"
   r="200"
   id="circle13" />
  <circle
   class="fil0 str0"
   cx="31745.01"
   cy="20185.311"
   r="200"
   id="circle15"
   style="fill:none;stroke:#ff0000;stroke-opacity:1" />
  <circle
   class="fil0 str0"
   cx="17129.104"
   cy="7389.5049"
   r="1500"
   id="circle17"
   style="fill:#ffffff" />
  <circle
   class="fil0 str0"
   cx="20429.104"
   cy="6089.5049"
   r="1500"
   id="circle19"
   style="fill:#ffffff" />
  <circle
   class="fil0 str0"
   cx="23929.104"
   cy="6089.5049"
   r="1500"
   id="circle21"
   style="fill:#ffffff" />
  
  
  
  
  
  
  <path
   id="circle35"
   class="fil0 str0"
   d="M 27429.096,4589.5207 A 1500,1500 0 0 0 25929.085,6089.4808 1500,1500 0 0 0 27429.096,7589.4926 1500,1500 0 0 0 28929.108,6089.4808 1500,1500 0 0 0 27429.096,4589.5207 Z"
   style="fill:#ffffff" />
  <circle
   class="fil0 str0"
   cx="16629.104"
   cy="11089.504"
   r="1500"
   id="circle37"
   style="fill:#ffffff" /><circle
   class="fil0 str0"
   cx="17129.109"
   cy="14753.811"
   r="1500"
   id="circle37-5"
   style="clip-rule:evenodd;fill:#ffffff;fill-rule:evenodd;stroke:#ff0000;stroke-width:7.62;stroke-miterlimit:22.9256;image-rendering:optimizeQuality;shape-rendering:geometricPrecision;text-rendering:geometricPrecision" />
  <circle
   class="fil0 str0"
   cx="19929.104"
   cy="9789.5039"
   r="1500"
   id="circle39"
   style="fill:#ffffff" />
  <circle
   class="fil0 str0"
   cx="23429.104"
   cy="9789.5039"
   r="1500"
   id="circle41"
   style="fill:#ffffff" />
  <circle
   class="fil0 str0"
   cx="26929.104"
   cy="9789.5039"
   r="1500"
   id="circle43"
   style="fill:#ffffff" />
 <circle
   class="fil0 str0"
   cx="17445.35"
   cy="2586.1101"
   r="200"
   id="circle9-7"
   style="clip-rule:evenodd;fill:none;fill-rule:evenodd;stroke:#ff0000;stroke-width:7.62;stroke-miterlimit:22.9256;image-rendering:optimizeQuality;shape-rendering:geometricPrecision;text-rendering:geometricPrecision" /><circle
   class="fil0 str0"
   cx="17445.35"
   cy="20185.311"
   r="200"
   id="circle9-7-9"
   style="clip-rule:evenodd;fill:none;fill-rule:evenodd;stroke:#ff0000;stroke-width:7.62;stroke-miterlimit:22.9256;image-rendering:optimizeQuality;shape-rendering:geometricPrecision;text-rendering:geometricPrecision" /><path
   id="rect1308"
   style="display:inline;fill:#ffffff;stroke:#ff0303;stroke-width:4.99998;stroke-dasharray:none"
   d="m 9803.3423,5380.5044 -718.2337,1973.3306 -1973.3312,-718.233 -648.1371,1780.742 2077.0553,755.986 4.9531,1.803 1864.7023,678.696 4.71,1.714 1775.984,646.405 648.137,-1780.742 -1775.984,-646.405 -4.71,-1.714 -192.637,-70.114 718.233,-1973.3306 z" /><g
   aria-label="예민쯔"
   id="text985-7"
   style="font-size:4233.33px;line-height:1;font-family:'Gill Sans MT Condensed';-inkscape-font-specification:'Gill Sans MT Condensed, ';fill:#0000ff;stroke-width:50"><path
     d="m 22704.056,20207.072 v -3987.35 h 310.059 v 3987.35 z M 21395.61,18607.171 q -208.773,613.915 -756.542,613.915 -411.344,0 -636.653,-357.6 -223.242,-359.668 -223.242,-1023.193 0,-661.458 223.242,-1019.058 225.309,-359.668 636.653,-359.668 539.501,0 748.274,591.178 h 597.379 v -752.408 h 307.991 v 3865.394 h -307.991 v -1558.56 z m -756.542,-1866.551 q -564.307,0 -564.307,1099.673 0,1101.741 564.307,1101.741 562.239,0 562.239,-1101.741 0,-1099.673 -562.239,-1099.673 z m 824.755,1595.767 h 520.898 v -1010.791 h -525.032 q 41.341,252.181 41.341,514.697 0,276.986 -37.207,496.094 z"
     style="text-align:center;text-anchor:middle"
     id="path470" /><path
     d="m 26856.771,19132.203 v -2912.481 h 310.059 v 2912.481 z m -2581.752,-771.012 v -1899.624 h 1841.746 v 1899.624 z m 1535.822,-1624.706 h -1231.965 v 1353.922 h 1231.965 z m -1099.674,3317.625 v -1273.306 h 307.992 v 994.253 h 2253.09 v 279.053 z"
     style="text-align:center;text-anchor:middle"
     id="path472" /><path
     d="m 30786.244,16879.112 v 80.615 q 0,646.989 783.414,1246.435 l -221.175,202.572 q -574.641,-456.82 -706.933,-872.298 -107.487,411.344 -754.475,994.254 l -243.913,-186.035 q 845.426,-677.994 845.426,-1389.062 v -76.481 H 29384.78 v 103.353 q 0,285.254 111.621,504.362 113.688,219.108 425.814,425.813 l -190.169,221.175 q -59.945,-55.81 -124.024,-107.487 -262.516,-206.705 -380.338,-429.947 -121.956,347.265 -711.067,833.023 l -233.577,-186.035 q 804.084,-624.251 804.084,-1265.038 v -99.219 h -756.542 v -274.918 h 3208.07 v 274.918 z m 998.388,2697.508 h -3700.03 v -274.918 h 3700.03 z"
     style="text-align:center;text-anchor:middle"
     id="path474" /></g><text
   xml:space="preserve"
   style="font-size:4233.33px;font-family:'Noto Serif KR';-inkscape-font-specification:'Noto Serif KR';text-align:center;text-anchor:middle;fill:none;stroke:#0003fc;stroke-width:7"
   x="6311.3662"
   y="10974.765"
   id="text392"><tspan
     sodipodi:role="line"
     id="tspan390"
     style="stroke-width:7" /></text><circle
   class="fil0 str0"
   cx="5145.7002"
   cy="2586.1001"
   id="circle9-9"
   style="clip-rule:evenodd;fill:none;fill-rule:evenodd;stroke:#ff0000;stroke-width:7.62;stroke-miterlimit:22.9256;image-rendering:optimizeQuality;shape-rendering:geometricPrecision;text-rendering:geometricPrecision"
   r="146.19" /><circle
   class="fil0 str0"
   cx="5145.7002"
   cy="20185.299"
   id="circle9-9-2"
   style="clip-rule:evenodd;fill:none;fill-rule:evenodd;stroke:#ff0000;stroke-width:7.62;stroke-miterlimit:22.9256;image-rendering:optimizeQuality;shape-rendering:geometricPrecision;text-rendering:geometricPrecision"
   r="146.19" /><circle
   class="fil0 str0"
   cx="29745.004"
   cy="20185.299"
   id="circle9-9-5"
   style="clip-rule:evenodd;fill:none;fill-rule:evenodd;stroke:#ff0000;stroke-width:7.62;stroke-miterlimit:22.9256;image-rendering:optimizeQuality;shape-rendering:geometricPrecision;text-rendering:geometricPrecision"
   r="146.19" /><circle
   class="fil0 str0"
   cx="29745.004"
   cy="2586.1001"
   id="circle9-9-7"
   style="clip-rule:evenodd;fill:none;fill-rule:evenodd;stroke:#ff0000;stroke-width:7.62;stroke-miterlimit:22.9256;image-rendering:optimizeQuality;shape-rendering:geometricPrecision;text-rendering:geometricPrecision"
   r="146.19" /></g>
</svg>
